<svg width="243" height="38" viewBox="0 0 243 38" fill="none" xmlns="http://www.w3.org/2000/svg">
<g clip-path="url(#clip0_419_6951)">
<path d="M170.051 19.3344C170.051 13.566 173.212 9.55322 178.346 9.55322C182.06 9.55322 184.641 11.5444 185.378 15.0594H184.007C183.48 12.5172 181.48 10.735 178.346 10.735C173.712 10.735 171.471 14.5882 171.471 19.3344C171.471 24.0806 173.685 27.8046 178.266 27.8046C181.98 27.8046 184.114 25.2092 184.458 21.8804H185.748C185.592 23.7158 185.011 25.3688 184.011 26.5468C182.694 28.12 180.667 29.013 178.27 29.013C173.131 29.013 170.051 25.1066 170.051 19.3382V19.3344Z" fill="black"/>
<path d="M187.828 9.92188H189.118V28.6673H187.828V9.92188Z" fill="black"/>
<path d="M200.472 27.0446V26.5734H200.392C199.628 27.6488 198.258 29.013 195.467 29.013C192.963 29.013 191.119 27.7286 191.119 25.2358C191.119 22.0096 193.646 21.356 196.494 21.0672C199.708 20.7518 200.445 20.596 200.445 19.3382V18.867C200.445 16.8226 199.235 15.9296 197.021 15.9296C194.467 15.9296 193.097 16.9784 192.913 18.9696H191.596C191.86 16.3476 193.623 14.8276 197.021 14.8276C200.052 14.8276 201.735 16.1652 201.735 18.943V26.9154C201.735 27.6488 202.132 27.8578 202.606 27.8578C202.789 27.8578 203.003 27.8046 203.239 27.7248H203.32V28.6672C203.11 28.7736 202.793 28.8762 202.266 28.8762C201.212 28.8762 200.476 28.2986 200.476 27.0408L200.472 27.0446ZM200.445 23.845V21.3294C199.498 21.8006 198.048 21.9868 196.651 22.1426C194.253 22.4048 192.436 22.7202 192.436 25.289C192.436 27.2042 193.86 27.9376 195.597 27.9376C198.678 27.9376 200.445 25.8932 200.445 23.8488V23.845Z" fill="black"/>
<path d="M203.793 24.5822H205.11C205.293 26.809 206.9 27.911 209.168 27.911C211.435 27.911 212.829 26.7824 212.829 25.0002C212.829 23.5334 212.119 22.9558 209.114 22.2452C206.324 21.5916 204.243 20.8544 204.243 18.4452C204.243 16.1918 206.297 14.8276 208.878 14.8276C212.012 14.8276 213.409 16.4806 213.726 18.6808H212.462C212.279 16.9518 210.935 15.9524 208.882 15.9524C206.667 15.9524 205.538 17.0012 205.538 18.4186C205.538 19.9918 206.801 20.4364 209.595 21.0938C212.336 21.7246 214.127 22.458 214.127 25.0268C214.127 27.2308 212.363 29.013 209.176 29.013C205.622 29.013 203.934 26.9154 203.801 24.5822H203.793Z" fill="black"/>
<path d="M215.195 24.5822H216.512C216.696 26.809 218.303 27.911 220.57 27.911C222.838 27.911 224.231 26.7824 224.231 25.0002C224.231 23.5334 223.521 22.9558 220.517 22.2452C217.726 21.5916 215.646 20.8544 215.646 18.4452C215.646 16.1918 217.7 14.8276 220.28 14.8276C223.414 14.8276 224.811 16.4806 225.128 18.6808H223.865C223.681 16.9518 222.338 15.9524 220.284 15.9524C218.07 15.9524 216.94 17.0012 216.94 18.4186C216.94 19.9918 218.203 20.4364 220.998 21.0938C223.739 21.7246 225.529 22.458 225.529 25.0268C225.529 27.2308 223.765 29.013 220.578 29.013C217.024 29.013 215.337 26.9154 215.203 24.5822H215.195Z" fill="black"/>
<path d="M227.549 9.92188H228.839V12.0195H227.549V9.92188ZM227.549 15.1127H228.839V28.6673H227.549V15.1165V15.1127Z" fill="black"/>
<path d="M230.896 21.907C230.896 17.8182 232.95 14.8276 236.848 14.8276C239.692 14.8276 241.669 16.2944 242.089 19.0228H240.826C240.379 16.872 238.982 15.9296 236.848 15.9296C233.557 15.9296 232.214 18.658 232.214 21.907C232.214 25.156 233.584 27.8844 236.825 27.8844C239.196 27.8844 240.749 26.3112 241.039 24.0844H242.25C241.906 27.0218 239.959 29.013 236.825 29.013C232.901 29.013 230.9 25.9958 230.9 21.907H230.896Z" fill="black"/>
<path d="M53.5966 9.6709C54.486 9.6709 55.303 9.7507 56.0397 9.9103C56.7765 10.0661 57.4064 10.3245 57.9293 10.6817C58.4523 11.0389 58.8608 11.5139 59.1509 12.1067C59.441 12.6995 59.5861 13.4291 59.5861 14.3031C59.5861 15.2417 59.3723 16.0245 58.9448 16.6553C58.5172 17.2823 57.8797 17.7953 57.0399 18.1981C58.1928 18.5287 59.0555 19.1101 59.6243 19.9347C60.1931 20.7631 60.4756 21.7587 60.4756 22.9253C60.4756 23.8677 60.2923 24.6809 59.9259 25.3725C59.5594 26.0603 59.0631 26.6227 58.4447 27.0559C57.8263 27.4891 57.1124 27.8121 56.3184 28.0249C55.5206 28.2339 54.7036 28.3365 53.8638 28.3365H44.7783V9.6709H53.6004H53.5966ZM53.0698 17.2253C53.8027 17.2253 54.4097 17.0543 54.8792 16.7047C55.3526 16.3589 55.5893 15.7927 55.5893 15.0061C55.5893 14.5729 55.5129 14.2119 55.3526 13.9345C55.1961 13.6571 54.9861 13.4405 54.7227 13.2809C54.4593 13.1251 54.1577 13.0149 53.818 12.9541C53.4744 12.8933 53.1232 12.8629 52.7529 12.8629H48.8935V17.2253H53.0698ZM53.3064 25.1445C53.7111 25.1445 54.0967 25.1027 54.4631 25.0267C54.8296 24.9507 55.1541 24.8177 55.4328 24.6353C55.7152 24.4529 55.9367 24.2021 56.1046 23.8905C56.2688 23.5789 56.3528 23.1761 56.3528 22.6859C56.3528 21.7283 56.0817 21.0443 55.5396 20.6339C54.9976 20.2273 54.2799 20.0221 53.3866 20.0221H48.8973V25.1445H53.3064Z" fill="black"/>
<path d="M62.709 12.7299V9.6709H66.4348V12.7299H62.709ZM66.4348 14.8199V28.3289H62.709V14.8199H66.4348Z" fill="black"/>
<path d="M76.5697 14.8199V17.3051H73.8402V23.997C73.8402 24.624 73.9471 25.0419 74.1571 25.2509C74.367 25.4599 74.7869 25.5625 75.4168 25.5625C75.6268 25.5625 75.8291 25.5549 76.02 25.5359C76.2147 25.5169 77.2225 25.4941 77.3981 25.4599V28.3327C77.0812 28.3859 75.9054 28.4201 75.5199 28.4391C75.1343 28.4581 74.7602 28.4658 74.3899 28.4658C73.8135 28.4658 73.2676 28.4277 72.7484 28.3479C72.2331 28.2719 71.775 28.1161 71.3818 27.892C70.9886 27.6639 70.6794 27.3409 70.4503 26.9229C70.2213 26.5049 70.1106 25.9539 70.1106 25.2775V17.3089H67.8545V14.8237H70.1106V10.7729H73.8364V14.8237H76.5659L76.5697 14.8199Z" fill="black"/>
<path d="M160.347 14.8199V17.3051H157.618V23.997C157.618 24.624 157.724 25.0419 157.931 25.2509C158.141 25.4599 158.56 25.5625 159.19 25.5625C159.4 25.5625 159.603 25.5549 159.793 25.5359C159.988 25.5169 160.996 25.4941 161.172 25.4599V28.3327C160.859 28.3859 159.679 28.4201 159.297 28.4391C158.912 28.4581 158.534 28.4658 158.167 28.4658C157.591 28.4658 157.041 28.4277 156.526 28.3479C156.01 28.2719 155.552 28.1161 155.159 27.892C154.766 27.6639 154.453 27.3409 154.228 26.9229C153.999 26.5049 153.888 25.9539 153.888 25.2775V17.3089H151.632V14.8237H153.888V10.7729H157.618V14.8237H160.347V14.8199Z" fill="black"/>
<path d="M76.3827 13.1213V9.6709H91.1905V13.1213H85.8461V28.3289H81.7233V13.1213H76.3789H76.3827Z" fill="black"/>
<path d="M88.4191 18.6503C88.7512 17.7687 89.2246 17.0239 89.8354 16.4007C90.45 15.7813 91.1829 15.3025 92.0419 14.9643C92.9008 14.6261 93.8628 14.4551 94.9316 14.4551C96.0005 14.4551 96.9663 14.6261 97.8329 14.9643C98.6994 15.3063 99.44 15.7851 100.051 16.4007C100.665 17.0201 101.135 17.7687 101.467 18.6503C101.799 19.5281 101.967 20.5085 101.967 21.5915C101.967 22.6745 101.799 23.6473 101.467 24.5175C101.135 25.3877 100.662 26.1325 100.051 26.7519C99.4362 27.3713 98.6994 27.8463 97.8329 28.1769C96.9701 28.5075 96.0005 28.6747 94.9316 28.6747C93.8628 28.6747 92.9008 28.5075 92.0419 28.1769C91.1867 27.8463 90.45 27.3713 89.8354 26.7519C89.2208 26.1363 88.7512 25.3877 88.4191 24.5175C88.087 23.6473 87.9229 22.6707 87.9229 21.5915C87.9229 20.5123 88.087 19.5319 88.4191 18.6503ZM91.8052 23.1723C91.9121 23.6891 92.0915 24.1489 92.3434 24.5555C92.5954 24.9659 92.9351 25.2927 93.355 25.5359C93.775 25.7791 94.2979 25.9007 94.9278 25.9007C95.5577 25.9007 96.0883 25.7791 96.5159 25.5359C96.9434 25.2927 97.287 24.9659 97.5389 24.5555C97.7947 24.1451 97.9741 23.6853 98.0772 23.1723C98.1841 22.6593 98.2375 22.1349 98.2375 21.5915C98.2375 21.0481 98.1841 20.5199 98.0772 19.9955C97.9741 19.4749 97.7947 19.0113 97.5389 18.6085C97.287 18.2095 96.9434 17.8827 96.5159 17.6281C96.0883 17.3735 95.5577 17.2481 94.9278 17.2481C94.2979 17.2481 93.7711 17.3735 93.355 17.6281C92.9351 17.8789 92.5954 18.2057 92.3434 18.6085C92.0877 19.0113 91.9082 19.4711 91.8052 19.9955C91.7021 20.5199 91.6487 21.0481 91.6487 21.5915C91.6487 22.1349 91.7021 22.6593 91.8052 23.1723Z" fill="black"/>
<path d="M126.75 25.0913C127.311 25.6309 128.113 25.9007 129.167 25.9007C129.919 25.9007 130.568 25.7145 131.11 25.3383C131.652 24.9659 131.984 24.5669 132.106 24.1489H135.389C134.862 25.7677 134.057 26.9305 132.973 27.6259C131.889 28.3213 130.575 28.6709 129.037 28.6709C127.968 28.6709 127.006 28.4999 126.147 28.1617C125.288 27.8235 124.563 27.3371 123.967 26.7101C123.372 26.0793 122.914 25.3345 122.589 24.4643C122.265 23.5941 122.104 22.6327 122.104 21.5877C122.104 20.5427 122.272 19.6345 122.605 18.7643C122.937 17.8903 123.41 17.1379 124.021 16.5033C124.635 15.8687 125.365 15.3671 126.212 15.0023C127.06 14.6375 128.002 14.4551 129.033 14.4551C130.19 14.4551 131.194 14.6755 132.053 15.1201C132.908 15.5647 133.614 16.1613 134.164 16.9099C134.717 17.6585 135.114 18.5135 135.359 19.4711C135.603 20.4287 135.691 21.4281 135.622 22.4769H125.83C125.884 23.6777 126.189 24.5517 126.75 25.0913ZM130.965 17.9815C130.518 17.4951 129.839 17.2519 128.93 17.2519C128.335 17.2519 127.842 17.3507 127.449 17.5521C127.056 17.7535 126.739 18.0005 126.502 18.2969C126.265 18.5933 126.101 18.9087 126.002 19.2393C125.907 19.5737 125.849 19.8663 125.83 20.1285H131.896C131.724 19.1861 131.408 18.4755 130.965 17.9853V17.9815Z" fill="black"/>
<path d="M141.005 14.8199V16.7009H141.085C141.558 15.9181 142.169 15.3443 142.921 14.9871C143.673 14.6337 144.444 14.4551 145.234 14.4551C146.231 14.4551 147.048 14.5881 147.689 14.8579C148.326 15.1277 148.83 15.5039 149.197 15.9827C149.563 16.4653 149.823 17.0467 149.972 17.7345C150.121 18.4223 150.197 19.1823 150.197 20.0221V28.3327H146.467V20.7023C146.467 19.5889 146.292 18.7567 145.94 18.2095C145.589 17.6623 144.971 17.3887 144.078 17.3887C143.062 17.3887 142.325 17.6889 141.875 18.2893C141.421 18.8897 141.192 19.8777 141.192 21.2571V28.3365H137.466V14.8199H141.008H141.005Z" fill="black"/>
<path d="M111.744 14.4589C111.714 14.4589 111.683 14.4551 111.652 14.4551C111.179 14.4551 110.725 14.5235 110.286 14.6641C109.851 14.8047 109.438 14.9985 109.053 15.2493C108.667 15.5039 108.327 15.8117 108.03 16.1651C107.732 16.5223 107.495 16.9099 107.32 17.3279H107.266V14.8199H103.724V28.3289H107.449V22.2413C107.449 21.6295 107.511 21.0671 107.633 20.5427C107.755 20.0183 107.961 19.5623 108.247 19.1709C108.537 18.7795 108.919 18.4717 109.393 18.2437C109.866 18.0157 110.442 17.9055 111.126 17.9055C111.324 17.9055 111.53 17.9169 111.74 17.9359V14.4589H111.744Z" fill="black"/>
<path d="M121.524 14.4589C121.494 14.4589 121.463 14.4551 121.433 14.4551C120.959 14.4551 120.505 14.5235 120.066 14.6641C119.627 14.8047 119.215 14.9985 118.833 15.2493C118.447 15.5039 118.108 15.8117 117.806 16.1651C117.508 16.5223 117.272 16.9099 117.096 17.3279H117.043V14.8199H113.5V28.3289H117.23V22.2413C117.23 21.6295 117.291 21.0671 117.417 20.5427C117.539 20.0183 117.745 19.5623 118.031 19.1709C118.321 18.7795 118.699 18.4717 119.173 18.2437C119.646 18.0157 120.222 17.9055 120.906 17.9055C121.104 17.9055 121.31 17.9169 121.52 17.9359V14.4589H121.524Z" fill="black"/>
<path d="M19.0871 0C8.54721 0 0 8.5082 0 19C0 22.5644 0.984896 25.9008 2.70274 28.7508C2.70274 28.7508 2.70274 28.7546 2.70655 28.7546C2.74473 28.7964 2.84016 28.8344 2.88597 28.8154C2.93178 28.7964 2.96232 28.7052 2.96232 28.6406C2.96232 28.5722 2.92033 28.5038 2.90888 28.4354C2.67601 27.227 2.34008 26.0224 2.24083 24.8026C2.06904 22.7316 2.26373 20.6682 2.91651 18.6732C4.66871 13.3114 8.21892 9.652 13.5175 7.6874C15.2544 7.0452 17.0753 6.7868 18.9192 6.7488C19.7132 6.7298 20.2782 7.2542 20.282 7.9572C20.2896 8.6678 19.7399 9.1238 18.9306 9.1656C18.0755 9.2112 17.2128 9.2758 16.3729 9.4278C13.3381 9.9826 10.7422 11.3848 8.63502 13.6154C5.32149 17.1304 4.04647 21.3066 4.81759 26.0566C5.29095 28.975 6.62323 31.5096 8.70755 33.6262C11.4866 36.4458 14.888 37.8974 18.839 37.9924C18.923 37.9924 19.0031 37.9924 19.0871 37.9924C22.3128 37.9924 25.3515 37.1944 28.0161 35.7884C25.0881 35.7884 22.0456 35.8036 19.1177 35.7808C18.3694 35.7732 17.6136 35.7086 16.8768 35.5756C10.288 34.3976 5.88647 28.2112 6.94008 21.603C7.48597 18.1716 9.24962 15.4698 12.0936 13.4786C13.8992 12.2132 15.9187 11.5292 18.129 11.3544C19.2971 11.2632 20.4423 11.3354 21.5761 11.571C22.2785 11.7154 22.687 12.3348 22.5572 12.9618C22.4121 13.6572 21.7746 14.0448 21.034 13.9118C20.6141 13.8358 20.1865 13.7522 19.7628 13.7294C18.1671 13.6458 16.6211 13.889 15.1475 14.5274C11.1965 16.2412 8.76099 20.2768 9.24962 24.6354C9.55883 27.3904 10.8491 29.6438 13.0594 31.3424C14.8154 32.6914 16.8158 33.3792 19.049 33.3754C22.7557 33.3716 26.4624 33.3754 30.1691 33.3754C31.2494 33.3754 31.5052 33.402 31.9786 33.0068C32.5894 32.452 33.162 31.8554 33.6926 31.2246C28.8865 31.2246 23.6566 31.2246 18.8504 31.2246C17.6747 31.2246 16.5753 30.9358 15.5522 30.3924C11.8378 28.4278 10.3758 24.1756 12.0822 20.3452C13.884 16.2982 19.0986 14.6452 22.916 16.91C23.5535 17.29 23.7597 17.9588 23.4237 18.5592C23.0916 19.1596 22.3663 19.3458 21.7135 18.9924C20.6561 18.4186 19.5414 18.1792 18.3313 18.354C15.3766 18.7796 13.3724 21.5194 13.8496 24.4112C14.2619 26.904 16.2928 28.8268 19.0566 28.8534C24.401 28.9066 29.7454 28.8724 35.0936 28.8572C35.2348 28.8572 35.4448 28.7508 35.5402 28.633C37.2161 25.8058 38.1743 22.5112 38.1743 18.9962C38.1743 8.5082 29.627 0 19.0871 0Z" fill="black"/>
</g>
<defs>
<clipPath id="clip0_419_6951">
<rect width="242.25" height="38" fill="white"/>
</clipPath>
</defs>
</svg>
