<svg xmlns="http://www.w3.org/2000/svg" xmlns:xlink="http://www.w3.org/1999/xlink" width="446" height="518" viewBox="0 0 446 518">
    <defs>
        <filter id="r9j9vv752c" width="171.2%" height="171.1%" x="-41.9%" y="-40.7%" filterUnits="objectBoundingBox">
            <feOffset dx="-10" dy="-8" in="SourceAlpha" result="shadowOffsetOuter1"/>
            <feGaussianBlur in="shadowOffsetOuter1" result="shadowBlurOuter1" stdDeviation="17"/>
            <feColorMatrix in="shadowBlurOuter1" values="0 0 0 0 0.243137255 0 0 0 0 0.494117647 0 0 0 0 1 0 0 0 1 0"/>
        </filter>
        <filter id="w5v476a7wg" width="157.2%" height="146.3%" x="-28.6%" y="-16.3%" filterUnits="objectBoundingBox">
            <feOffset dy="1" in="SourceAlpha" result="shadowOffsetOuter1"/>
            <feGaussianBlur in="shadowOffsetOuter1" result="shadowBlurOuter1" stdDeviation="1"/>
            <feColorMatrix in="shadowBlurOuter1" values="0 0 0 0 0.0470588235 0 0 0 0 0.0941176471 0 0 0 0 0.17254902 0 0 0 0.25 0"/>
        </filter>
        <filter id="8m68d0jegj" width="157.2%" height="146.3%" x="-28.6%" y="-16.3%" filterUnits="objectBoundingBox">
            <feOffset dy="1" in="SourceAlpha" result="shadowOffsetOuter1"/>
            <feGaussianBlur in="shadowOffsetOuter1" result="shadowBlurOuter1" stdDeviation="1"/>
            <feColorMatrix in="shadowBlurOuter1" values="0 0 0 0 0.0470588235 0 0 0 0 0.0941176471 0 0 0 0 0.17254902 0 0 0 0.25 0"/>
        </filter>
        <filter id="d62yba3url" width="165.3%" height="153.2%" x="-32.7%" y="-12.9%" filterUnits="objectBoundingBox">
            <feOffset dy="1" in="SourceAlpha" result="shadowOffsetOuter1"/>
            <feGaussianBlur in="shadowOffsetOuter1" result="shadowBlurOuter1" stdDeviation=".5"/>
            <feColorMatrix in="shadowBlurOuter1" values="0 0 0 0 0.0470588235 0 0 0 0 0.0941176471 0 0 0 0 0.17254902 0 0 0 0.25 0"/>
        </filter>
        <filter id="rgec5h7e3o" width="197.7%" height="197.7%" x="-57.6%" y="-55.8%" filterUnits="objectBoundingBox">
            <feOffset dx="-10" dy="-8" in="SourceAlpha" result="shadowOffsetOuter1"/>
            <feGaussianBlur in="shadowOffsetOuter1" result="shadowBlurOuter1" stdDeviation="17"/>
            <feColorMatrix in="shadowBlurOuter1" values="0 0 0 0 0.243137255 0 0 0 0 0.494117647 0 0 0 0 1 0 0 0 1 0"/>
        </filter>
        <filter id="3f4z5potur" width="239%" height="237.2%" x="-81.9%" y="-78.4%" filterUnits="objectBoundingBox">
            <feOffset dx="-10" dy="-8" in="SourceAlpha" result="shadowOffsetOuter1"/>
            <feGaussianBlur in="shadowOffsetOuter1" result="shadowBlurOuter1" stdDeviation="17"/>
            <feColorMatrix in="shadowBlurOuter1" values="0 0 0 0 0.243137255 0 0 0 0 0.494117647 0 0 0 0 1 0 0 0 1 0"/>
        </filter>
        <filter id="xs7f31cety" width="239%" height="237.2%" x="-81.9%" y="-78.4%" filterUnits="objectBoundingBox">
            <feOffset dx="-10" dy="-8" in="SourceAlpha" result="shadowOffsetOuter1"/>
            <feGaussianBlur in="shadowOffsetOuter1" result="shadowBlurOuter1" stdDeviation="17"/>
            <feColorMatrix in="shadowBlurOuter1" values="0 0 0 0 0.243137255 0 0 0 0 0.494117647 0 0 0 0 1 0 0 0 1 0"/>
        </filter>
        <filter id="cwtjn9oi7A" width="239%" height="237.2%" x="-81.9%" y="-78.4%" filterUnits="objectBoundingBox">
            <feOffset dx="-10" dy="-8" in="SourceAlpha" result="shadowOffsetOuter1"/>
            <feGaussianBlur in="shadowOffsetOuter1" result="shadowBlurOuter1" stdDeviation="17"/>
            <feColorMatrix in="shadowBlurOuter1" values="0 0 0 0 0.243137255 0 0 0 0 0.494117647 0 0 0 0 1 0 0 0 1 0"/>
        </filter>
        <filter id="n7sm5jrk2E" width="239%" height="237.2%" x="-81.9%" y="-78.4%" filterUnits="objectBoundingBox">
            <feOffset dx="-10" dy="-8" in="SourceAlpha" result="shadowOffsetOuter1"/>
            <feGaussianBlur in="shadowOffsetOuter1" result="shadowBlurOuter1" stdDeviation="17"/>
            <feColorMatrix in="shadowBlurOuter1" values="0 0 0 0 0.243137255 0 0 0 0 0.494117647 0 0 0 0 1 0 0 0 1 0"/>
        </filter>
        <path id="gbbaaq2l0a" d="M223 109.814L365.777 213.896 311.241 382.306 134.759 382.306 80.223 213.896z"/>
        <path id="dk38btus3h" d="M0 4.097v6.452c0 .267.141.513.37.647l5.39 3.158c.234.138.525.137.76 0l5.354-3.157c.229-.135.37-.38.37-.646V4.096c0-.263-.139-.507-.364-.643L6.525.232C6.288.089 5.991.089 5.754.23L.365 3.454c-.226.135-.365.38-.365.643z"/>
        <path id="ske44eixfk" d="M0 4.097v6.452c0 .267.141.513.37.647l5.39 3.158c.234.138.525.137.76 0l5.354-3.157c.229-.135.37-.38.37-.646V4.096c0-.263-.139-.507-.364-.643L6.525.232C6.288.089 5.991.089 5.754.23L.365 3.454c-.226.135-.365.38-.365.643z"/>
        <path id="4wpp8ycltm" d="M0 2.049v3.226c0 .133.07.256.185.323l2.695 1.58c.117.068.262.068.38-.001l2.677-1.579c.114-.067.185-.19.185-.323V2.048c0-.131-.07-.253-.182-.321L3.263.116c-.12-.071-.267-.072-.386 0L.183 1.725C.069 1.796 0 1.917 0 2.05z"/>
        <path id="ujabfto0zu" d="M0 0.038L25.011 0.038 25.011 25.986 0 25.986z"/>
        <path id="cb0c27993w" d="M0.028 0.066L2.349 0.066 2.349 2.333 0.028 2.333z"/>
        <path id="v9til0e5mC" d="M0 0L40.445 0 40.445 40.492 0 40.492z"/>
        <ellipse id="sfv0lxh0ld" cx="222.514" cy="258.5" rx="78.706" ry="78.716"/>
        <ellipse id="kwp1ie514p" cx="222.514" cy="109.814" rx="57.329" ry="57.336"/>
        <ellipse id="dhik4211vs" cx="41.045" cy="40.816" rx="40.284" ry="40.816"/>
        <ellipse id="ogdl3tdlqz" cx="40.284" cy="40.816" rx="40.284" ry="40.816"/>
        <ellipse id="6yxryjjscB" cx="40.418" cy="40.816" rx="40.284" ry="40.816"/>
        <ellipse id="n4xmrytg6F" cx="40.863" cy="40.816" rx="40.284" ry="40.816"/>
        <radialGradient id="ny8iojuxqe" cx="33.379%" cy="30.821%" r="61.978%" fx="33.379%" fy="30.821%" gradientTransform="translate(0.333793,0.308215),scale(1.000000,0.999869),rotate(49.055987),scale(1.000000,0.972710),translate(-0.333793,-0.308215)">
            <stop offset="0%" stop-color="#275CC9"/>
            <stop offset="100%" stop-color="#0E1C35"/>
        </radialGradient>
        <radialGradient id="d2yfm9wbmq" cx="33.379%" cy="30.821%" r="61.978%" fx="33.379%" fy="30.821%" gradientTransform="translate(0.333793,0.308215),scale(1.000000,0.999869),rotate(49.055987),scale(1.000000,0.972710),translate(-0.333793,-0.308215)">
            <stop offset="0%" stop-color="#275CC9"/>
            <stop offset="100%" stop-color="#0E1C35"/>
        </radialGradient>
        <radialGradient id="dndxi5shkt" cx="33.379%" cy="30.821%" r="62.441%" fx="33.379%" fy="30.821%" gradientTransform="translate(0.333793,0.308215),scale(1.000000,0.986965),rotate(49.424066),scale(1.000000,0.972710),translate(-0.333793,-0.308215)">
            <stop offset="0%" stop-color="#275CC9"/>
            <stop offset="100%" stop-color="#0E1C35"/>
        </radialGradient>
        <linearGradient id="1dmkxn4dub" x1="30.466%" x2="67.963%" y1="12.944%" y2="88.611%">
            <stop offset="0%" stop-color="#275DCC"/>
            <stop offset="100%" stop-color="#0C182C"/>
        </linearGradient>
        <linearGradient id="i0spdaqfhi" x1="50%" x2="50%" y1="0%" y2="100%">
            <stop offset="0%" stop-color="#FFF" stop-opacity=".2"/>
            <stop offset="100%" stop-color="#FFF" stop-opacity="0"/>
        </linearGradient>
        <linearGradient id="188ijzxz9n" x1="50%" x2="50%" y1="0%" y2="100%">
            <stop offset="0%" stop-color="#FFF" stop-opacity=".2"/>
            <stop offset="100%" stop-color="#FFF" stop-opacity="0"/>
        </linearGradient>
        <mask id="uq4utb4gbf" width="300.248" height="301.259" x="0" y="0" fill="#fff" maskContentUnits="userSpaceOnUse" maskUnits="objectBoundingBox">
            <use xlink:href="#gbbaaq2l0a"/>
        </mask>
    </defs>
    <g fill="none" fill-rule="evenodd">
        <g>
            <g>
                <g transform="translate(-406.000000, -1842.000000) translate(406.000000, 1842.000000) translate(0.000000, 0.466231)">
                    <path fill="url(#1dmkxn4dub)" d="M0 141.734V377.78c0 7.182 3.85 13.812 10.089 17.371L213.717 511.33c6.159 3.513 13.717 3.504 19.867-.026L435.955 395.16c6.213-3.566 10.045-10.182 10.045-17.346V141.7c0-7.1-3.765-13.669-9.891-17.257L233.737 5.903c-6.227-3.647-13.937-3.657-20.173-.025L9.936 124.45C3.784 128.033 0 134.615 0 141.734z"/>
                    <g>
                        <use fill="#000" filter="url(#r9j9vv752c)" xlink:href="#sfv0lxh0ld"/>
                        <use fill="url(#ny8iojuxqe)" xlink:href="#sfv0lxh0ld"/>
                    </g>
                    <use stroke="#FFF" stroke-dasharray="15" stroke-width="2.5" mask="url(#uq4utb4gbf)" xlink:href="#gbbaaq2l0a"/>
                    <g>
                        <g transform="translate(408.104575, 150.629699)">
                            <use fill="#000" filter="url(#w5v476a7wg)" xlink:href="#dk38btus3h"/>
                            <use fill="#FFF" xlink:href="#dk38btus3h"/>
                        </g>
                        <path fill="url(#i0spdaqfhi)" d="M0 9.912H12.243V82.79700000000001H0z" transform="translate(408.104575, 150.629699)"/>
                    </g>
                    <g>
                        <g transform="translate(25.263617, 295.428571)">
                            <use fill="#000" filter="url(#8m68d0jegj)" xlink:href="#ske44eixfk"/>
                            <use fill="#FFF" xlink:href="#ske44eixfk"/>
                        </g>
                        <path fill="url(#i0spdaqfhi)" d="M0 9.912H12.243V82.79700000000001H0z" transform="translate(25.263617, 295.428571)"/>
                    </g>
                    <g opacity=".699">
                        <g transform="translate(115.629630, 99.124060)">
                            <use fill="#000" filter="url(#d62yba3url)" xlink:href="#4wpp8ycltm"/>
                            <use fill="#FFF" xlink:href="#4wpp8ycltm"/>
                        </g>
                        <path fill="url(#188ijzxz9n)" d="M0 4.956H6.122V41.399H0z" transform="translate(115.629630, 99.124060)"/>
                    </g>
                    <g>
                        <use fill="#000" filter="url(#rgec5h7e3o)" xlink:href="#kwp1ie514p"/>
                        <use fill="url(#d2yfm9wbmq)" xlink:href="#kwp1ie514p"/>
                    </g>
                    <path fill="#FFF" d="M225.753 124.36v-15.315l13.45-7.657 7.716-4.398v9.934c0 .224.246.345.421.241l.667-.38 3.91-2.224c.439-.259.72-.724.72-1.225V92.093c0-1.018-.544-1.949-1.439-2.449l-1.438-.81-8.417-4.795c-.439-.259-.982-.259-1.438 0l-4.577 2.604c-.193.104-.193.38 0 .483l8.715 4.967-7.716 4.398-13.45 7.657-13.45-7.657-7.418-4.226-.28-.155 8.715-4.967c.193-.103.193-.38 0-.483l-4.577-2.604c-.439-.258-.982-.258-1.438 0l-8.435 4.812-1.438.81c-.894.5-1.438 1.432-1.438 2.45v11.227c0 .5.28.966.719 1.224l3.946 2.242.648.362c.193.104.421-.034.421-.241v-9.917l.28.156 7.436 4.242 13.45 7.657V133.19l-8.715-4.967c-.193-.104-.42.034-.42.241v5.226c0 .5.28.966.718 1.224l8.435 4.812 1.438.81c.895.5 1.982.5 2.859 0l1.438-.81 8.435-4.812c.438-.258.719-.724.719-1.224v-5.226c0-.224-.246-.345-.421-.241l-8.751 4.915v-8.778zm15.624-.236c-.437.261-.717.732-.717 1.237v5.282c0 .227.245.349.42.244l10.123-5.84c.891-.505 1.433-1.446 1.433-2.475v-11.696c0-.226-.245-.348-.42-.244l-1.328.767-3.235 1.865c-.437.262-.716.732-.716 1.238v6.415l-5.56 3.207zm-37.026 6.519c0 .227-.244.349-.42.244l-10.107-5.84c-.89-.505-1.432-1.446-1.432-2.475v-11.696c0-.226.245-.348.42-.244l1.36.785 3.213 1.847c.437.262.716.732.716 1.238v6.432l5.552 3.207c.436.262.715.732.715 1.238v5.264h-.017zm6.695-50.517c-.194.106-.194.387 0 .492l3.032 1.758 1.568.914c.44.263.987.263 1.445 0l5.587-3.234 5.622 3.234c.44.263.987.263 1.445 0l1.586-.914 3.014-1.74c.194-.105.194-.387 0-.492l-10.222-5.905c-.899-.51-1.991-.51-2.873 0l-10.204 5.887z"/>
                    <g>
                        <g transform="translate(102.026144, 329.441729)">
                            <use fill="#000" filter="url(#3f4z5potur)" xlink:href="#dhik4211vs"/>
                            <use fill="url(#dndxi5shkt)" xlink:href="#dhik4211vs"/>
                        </g>
                        <g>
                            <path fill="#FFF" d="M24.557 21.557c1.024-1.211 2.486-1.981 4.077-2.146 1.32-.162 2.658.04 3.869.584l1.625-3.302c-1.619-.588-3.356-.786-5.068-.578-2.67.22-5.169 1.38-7.043 3.268-1.893 2.007-3.054 4.58-3.299 7.31-.379 3.098.028 5.396 1.22 6.894 1.19 1.499 3.112 2.103 5.762 1.813 1.04-.115 2.071-.306 3.084-.57 1.125-.305 2.223-.698 3.285-1.175l1.191-9.667-6.961.767-.406 3.288 3.325-.366-.475 3.892c-.78.248-1.582.421-2.396.516-1.223.272-2.49-.214-3.205-1.23-.714-1.392-.926-2.983-.6-4.51.157-1.762.86-3.434 2.015-4.788" transform="translate(102.026144, 329.441729) translate(20.286158, 18.950188)"/>
                            <g transform="translate(102.026144, 329.441729) translate(20.286158, 18.950188) translate(0.119071, 0.485902)">
                                <mask id="1sm3zmr18v" fill="#fff">
                                    <use xlink:href="#ujabfto0zu"/>
                                </mask>
                                <path fill="#FFF" d="M11.81 22.193l1.35-11.04 9.2-1.645-10.55 12.685zm-1.396-.014L2.711 3.066l9.126 7.468-1.423 11.645zm7.602-17.475l-5.56 4.565-8.753-7.165 14.313 2.6zm4.562 3.383l-8.312 1.481 5.275-4.338 3.037 2.857zm-2.721-4.441L0 .038l10.448 25.948L25.01 8.483l-5.154-4.837z" mask="url(#1sm3zmr18v)"/>
                            </g>
                            <path fill="#FFF" d="M36.205 36.475c-.55.128-.977.57-1.09 1.132-.075.346.14.689.482.764.114.026.232.019.342-.02.55-.128.977-.57 1.09-1.131.071-.35-.151-.692-.496-.764-.11-.023-.222-.016-.328.02M36.508 31.966c.447-.427 1.05-.509 1.346-.183.295.325.172.935-.276 1.362-.448.426-1.05.509-1.346.183-.296-.325-.172-.935.276-1.362M37.48 26.136c.448-.427 1.05-.51 1.346-.185.295.325.17.935-.277 1.362-.448.427-1.05.51-1.346.185-.295-.325-.17-.934.277-1.362M37.48 20.304c.447-.426 1.05-.508 1.345-.183.296.325.172.935-.275 1.362-.448.427-1.05.509-1.346.183-.296-.325-.172-.935.275-1.362M38.451 14.474c.448-.427 1.05-.51 1.346-.184.296.326.172.935-.276 1.362-.448.427-1.05.51-1.346.184-.295-.326-.172-.935.276-1.362M39.423 9.615c.447-.427 1.05-.51 1.346-.184.295.326.172.935-.276 1.362-.448.427-1.05.51-1.346.184-.296-.326-.172-.936.276-1.362M29.706 38.769c.448-.427 1.05-.509 1.346-.184.296.326.172.936-.276 1.362-.448.427-1.05.51-1.346.184-.295-.326-.172-.935.276-1.362M33.593 10.586c.447-.426 1.05-.508 1.346-.183.295.325.172.935-.276 1.362-.448.427-1.05.509-1.346.183-.296-.325-.172-.935.276-1.362M23.876 39.74c.448-.426 1.05-.508 1.346-.183.295.326.172.935-.276 1.362-.448.427-1.05.509-1.346.184-.295-.326-.172-.936.276-1.362M28.164 13.084c.55-.127.976-.568 1.09-1.128.076-.345-.138-.688-.48-.765-.113-.026-.233-.019-.343.02-.55.127-.976.568-1.09 1.128-.076.345.139.688.48.765.114.026.233.019.343-.02M18.046 40.712c.448-.426 1.05-.508 1.346-.183.295.325.172.935-.276 1.362-.448.427-1.05.509-1.346.183-.296-.325-.172-.935.276-1.362" transform="translate(102.026144, 329.441729) translate(20.286158, 18.950188)"/>
                            <g transform="translate(102.026144, 329.441729) translate(20.286158, 18.950188) translate(11.779201, 41.301692)">
                                <mask id="gsmbo7wupx" fill="#fff">
                                    <use xlink:href="#cb0c27993w"/>
                                </mask>
                                <path fill="#FFF" d="M.55.512C1.083.015 1.803-.08 2.156.298c.353.38.205 1.09-.33 1.589C1.293 2.384.573 2.48.22 2.1S.014 1.01.55.512" mask="url(#gsmbo7wupx)"/>
                            </g>
                            <path fill="#FFF" d="M13.187 35.853c.448-.426 1.05-.508 1.346-.183.296.325.173.935-.275 1.362-.448.427-1.05.509-1.346.183-.296-.325-.172-.935.275-1.362M14.159 30.994c.448-.426 1.05-.508 1.346-.183.296.325.172.935-.276 1.362-.447.427-1.05.509-1.346.183-.295-.325-.172-.935.276-1.362M14.159 25.164c.448-.427 1.05-.51 1.346-.184.296.326.172.935-.276 1.362-.447.427-1.05.509-1.346.184-.295-.326-.172-.936.276-1.362" transform="translate(102.026144, 329.441729) translate(20.286158, 18.950188)"/>
                        </g>
                    </g>
                    <g>
                        <g transform="translate(53.442266, 179.783835) translate(0.452334, 0.000000)">
                            <use fill="#000" filter="url(#xs7f31cety)" xlink:href="#ogdl3tdlqz"/>
                            <use fill="url(#dndxi5shkt)" xlink:href="#ogdl3tdlqz"/>
                        </g>
                        <path fill="#FFF" d="M19.434 21.38l17.051 43.73 23.759-29.504-8.405-8.15-32.405-6.076zm5.83 3.887l22.348 4.228-8.672 7.434-13.676-11.662zM23.32 27.21l14.575 12.534-2.277 19.535L23.32 27.21zm27.09 2.915l4.976 5.111L41.782 37.9l8.628-7.774zM40.133 40.672L55.386 37.9l-17.49 21.38 2.237-18.608z" transform="translate(53.442266, 179.783835)"/>
                    </g>
                    <g>
                        <g transform="translate(271.098039, 329.441729)">
                            <use fill="#000" filter="url(#cwtjn9oi7A)" xlink:href="#6yxryjjscB"/>
                            <use fill="url(#dndxi5shkt)" xlink:href="#6yxryjjscB"/>
                        </g>
                        <g>
                            <g transform="translate(271.098039, 329.441729) translate(20.039122, 19.921992) translate(0.366107, 0.485902)">
                                <mask id="9t13rnd9lD" fill="#fff">
                                    <use xlink:href="#v9til0e5mC"/>
                                </mask>
                                <path fill="#FFF" d="M20.223 38.467c-10.052 0-18.2-8.158-18.2-18.221 0-10.064 8.148-18.221 18.2-18.221s18.2 8.157 18.2 18.22c0 10.064-8.148 18.222-18.2 18.222m0-38.467C9.054 0 0 9.064 0 20.246c0 5.59 2.263 10.651 5.922 14.315h.001v.002c3.66 3.663 8.716 5.929 14.3 5.929 11.168 0 20.222-9.065 20.222-20.246C40.445 9.064 31.391 0 20.223 0" mask="url(#9t13rnd9lD)"/>
                            </g>
                            <path fill="#FFF" d="M9.483 30.546c-1.52-3.367-1.66-7.497-.295-10.948.784-1.982 2.036-3.76 3.616-5.13 2.208-1.914 5.082-3.047 7.96-3.036l.007-1.84v-.358s-.26-.004-.368 0c-3.668.14-7.262 1.717-9.886 4.403-2.371 2.427-3.858 5.758-4.233 9.195-.404 3.705.59 7.587 2.817 10.516l.036.049c.91 1.186 1.987 2.264 3.268 2.987 2.334 1.317 4.657 1.916 6.96 2.002-4.198-.802-8.06-3.807-9.882-7.84" transform="translate(271.098039, 329.441729) translate(20.039122, 19.921992)"/>
                            <path fill="#FFF" d="M31.1 32.53c-.423.04-.847.071-1.272.096-3.57.205-7.515.118-10.667-1.838-.868-.538-1.65-1.217-2.302-2.013-2.269-2.768-2.189-6.939.714-9.216 2.53-1.984 6.334-1.608 8.371.929.18.225.577.739.577.739s.666-.359.878-.466l.066-.034.045-.022.113-.057.056-.029.504-.254.278-.14-.008-.014c-.585-1.004-1.374-1.881-2.3-2.564-1.742-1.282-4.015-1.85-6.133-1.52-3.468.537-6.34 3.269-6.91 6.824-.59 3.674 1.208 7.196 4.164 9.244 3.07 2.127 6.935 2.423 10.58 2.27.853-.036 2.596-.185 2.59-.216.727-.61 1.393-1.248 1.987-1.923 0 0-1.151.188-1.33.204" transform="translate(271.098039, 329.441729) translate(20.039122, 19.921992)"/>
                            <path fill="#FFF" d="M25.07 35.88c-.444-.01-.888-.036-1.33-.077-3.655-.342-7.386-1.693-9.799-4.503-2.236-2.604-3.176-6.3-2.083-9.572.878-2.63 2.991-4.803 5.623-5.815 2.231-.858 4.794-.863 7.03-.012.002.001.433-.92.475-1.007l.007-.016.015-.031.031-.065c.139-.288.272-.58.417-.864-3.069-1.072-6.377-1.125-9.383.21-3.047 1.355-5.456 4.015-6.441 7.143-1.11 3.525-.42 7.472 1.839 10.424 1.313 1.717 3.123 3.042 5.07 4.024 3.08 1.554 7.513 1.751 7.831 1.685 1.53-.356 3.724-1.38 4.173-1.717-.66.129-1.798.17-2.47.19-.335.01-.67.011-1.004.003" transform="translate(271.098039, 329.441729) translate(20.039122, 19.921992)"/>
                        </g>
                    </g>
                    <g>
                        <g transform="translate(310.936819, 179.783835)">
                            <use fill="#000" filter="url(#n7sm5jrk2E)" xlink:href="#n4xmrytg6F"/>
                            <use fill="url(#dndxi5shkt)" xlink:href="#n4xmrytg6F"/>
                        </g>
                        <g fill="#FFF">
                            <path d="M.903 33.527H33.94V.486H.903v33.041zM4 30.43h26.842V3.584H4V30.43z" transform="translate(310.936819, 179.783835) translate(23.389262, 22.837406)"/>
                            <path d="M18.682 22.279c1.404 0 2.275-.807 2.275-2.055 0-1.394-1.016-2.104-2.324-2.104h-3.777v4.159h3.826zm-.34-7.095c1.235 0 2.083-.612 2.083-1.762 0-1.1-.8-1.737-2.058-1.737h-3.51v3.499h3.485zM10.62 8.26h8.353c1.792 0 3.123.44 4.044 1.2.992.83 1.5 1.956 1.5 3.35 0 1.738-.895 2.839-2.42 3.425v.074c1.888.587 3.099 2.202 3.099 4.282 0 1.761-.63 3.033-1.768 3.914-1.017.808-2.445 1.248-4.26 1.248h-8.548V8.26z" transform="translate(310.936819, 179.783835) translate(23.389262, 22.837406)"/>
                        </g>
                    </g>
                </g>
                <path fill="#FFF" d="M239.329 349.15v-81.714l71.882-40.857 41.237-23.465v53.004c0 1.196 1.312 1.84 2.249 1.288l3.561-2.025 20.9-11.87c2.342-1.38 3.842-3.865 3.842-6.534V176.98c0-5.429-2.905-10.398-7.685-13.067l-7.685-4.325-44.985-25.581c-2.343-1.38-5.248-1.38-7.685 0l-24.46 13.895c-1.031.552-1.031 2.024 0 2.576l46.578 26.502-41.237 23.465-71.882 40.857-71.882-40.857-39.643-22.545-1.5-.828 46.578-26.501c1.031-.553 1.031-2.025 0-2.577l-24.46-13.895c-2.343-1.38-5.248-1.38-7.685 0l-45.079 25.674-7.685 4.324c-4.78 2.67-7.685 7.638-7.685 13.067v59.905c0 2.669 1.5 5.154 3.843 6.534l21.086 11.962 3.468 1.933c1.03.552 2.25-.184 2.25-1.288v-52.912l1.499.828 39.737 22.637 71.882 40.857v128.644l-46.578-26.502c-1.031-.552-2.25.184-2.25 1.289v27.882c0 2.668 1.5 5.153 3.843 6.533l45.079 25.674 7.685 4.325c4.78 2.668 10.59 2.668 15.276 0l7.685-4.325 45.078-25.674c2.343-1.38 3.843-3.865 3.843-6.533V371.05c0-1.197-1.312-1.84-2.25-1.289l-46.765 26.226V349.15zm83.314-.665c-2.343 1.401-3.843 3.923-3.843 6.632v28.305c0 1.215 1.312 1.87 2.25 1.309l54.265-31.295c4.78-2.71 7.685-7.754 7.685-13.265v-62.683c0-1.215-1.312-1.868-2.25-1.308l-7.122 4.11-17.339 9.996c-2.343 1.401-3.843 3.924-3.843 6.633v34.377l-29.803 17.189zm-196.537 34.938c0 1.214-1.31 1.868-2.246 1.308l-54.186-31.295c-4.773-2.71-7.674-7.754-7.674-13.265v-62.683c0-1.215 1.31-1.868 2.246-1.308l7.3 4.204 17.22 9.902c2.34 1.401 3.837 3.924 3.837 6.633v34.47l29.76 17.19c2.34 1.4 3.837 3.923 3.837 6.632v28.212h-.094zm34.913-270.391c-1.031.564-1.031 2.07 0 2.634l16.125 9.409 8.343 4.893c2.344 1.41 5.25 1.41 7.687 0l29.719-17.313 29.905 17.313c2.344 1.41 5.25 1.41 7.688 0l8.437-4.893 16.03-9.315c1.032-.564 1.032-2.07 0-2.634L230.58 81.513c-4.781-2.729-10.594-2.729-15.281 0l-54.28 31.519z" opacity=".107" transform="translate(-406.000000, -1842.000000) translate(406.000000, 1842.000000)"/>
            </g>
        </g>
    </g>
</svg>
