<svg width="259" height="38" viewBox="0 0 259 38" fill="none" xmlns="http://www.w3.org/2000/svg">
<path d="M53.3453 9.71777C54.2227 9.71777 55.0286 9.79757 55.7553 9.95717C56.4821 10.113 57.1035 10.3714 57.6194 10.7286C58.1353 11.0858 58.5382 11.5608 58.8244 12.1536C59.1106 12.7464 59.2537 13.476 59.2537 14.35C59.2537 15.2886 59.0428 16.0714 58.6211 16.7022C58.1993 17.3292 57.5704 17.8422 56.742 18.245C57.8792 18.5756 58.7303 19.157 59.2913 19.9816C59.8524 20.81 60.1311 21.8056 60.1311 22.9722C60.1311 23.9146 59.9504 24.7278 59.5888 25.4194C59.2273 26.1072 58.7378 26.6696 58.1277 27.1028C57.5177 27.536 56.8135 27.859 56.0302 28.0718C55.2432 28.2808 54.4373 28.3834 53.6089 28.3834H44.6465V9.71777H53.3491H53.3453ZM52.8256 17.2722C53.5486 17.2722 54.1474 17.1012 54.6106 16.7516C55.0775 16.4058 55.311 15.8396 55.311 15.053C55.311 14.6198 55.2357 14.2588 55.0775 13.9814C54.9231 13.704 54.716 13.4874 54.4562 13.3278C54.1963 13.172 53.8988 13.0618 53.5637 13.001C53.2248 12.9402 52.8783 12.9098 52.5131 12.9098H48.7059V17.2722H52.8256ZM53.0591 25.1914C53.4583 25.1914 53.8386 25.1496 54.2001 25.0736C54.5616 24.9976 54.8817 24.8646 55.1566 24.6822C55.4353 24.4998 55.6537 24.249 55.8194 23.9374C55.9813 23.6258 56.0641 23.223 56.0641 22.7328C56.0641 21.7752 55.7968 21.0912 55.262 20.6808C54.7273 20.2742 54.0193 20.069 53.1382 20.069H48.7097V25.1914H53.0591Z" fill="white"/>
<path d="M62.3301 12.7768V9.71777H66.0054V12.7768H62.3301ZM66.0054 14.8668V28.3758H62.3301V14.8668H66.0054Z" fill="white"/>
<path d="M76.0034 14.8668V17.352H73.3109V24.0438C73.3109 24.667 73.4163 25.0888 73.6234 25.2978C73.8306 25.5068 74.2448 25.6094 74.8661 25.6094C75.0732 25.6094 75.2728 25.6018 75.4611 25.5828C75.6532 25.5638 76.6473 25.541 76.8205 25.5068V28.3796C76.508 28.4328 75.3481 28.467 74.9678 28.486C74.5875 28.505 74.2184 28.5126 73.8532 28.5126C73.2845 28.5126 72.746 28.4746 72.2339 28.3948C71.7255 28.3188 71.2736 28.163 70.8858 27.9388C70.4979 27.7108 70.1929 27.3878 69.9669 26.9698C69.741 26.5518 69.6318 26.0008 69.6318 25.3244V17.3558H67.4062V14.8706H69.6318V10.8198H73.3071V14.8706H75.9996L76.0034 14.8668Z" fill="white"/>
<path d="M158.65 14.8668V17.352H155.957V24.0438C155.957 24.667 156.063 25.0888 156.266 25.2978C156.473 25.5068 156.888 25.6094 157.509 25.6094C157.716 25.6094 157.916 25.6018 158.104 25.5828C158.296 25.5638 159.29 25.541 159.463 25.5068V28.3796C159.154 28.4328 157.991 28.467 157.614 28.486C157.234 28.505 156.861 28.5126 156.5 28.5126C155.931 28.5126 155.389 28.4746 154.88 28.3948C154.372 28.3188 153.92 28.163 153.532 27.9388C153.144 27.7108 152.836 27.3878 152.613 26.9698C152.387 26.5518 152.278 26.0008 152.278 25.3244V17.3558H150.053V14.8706H152.278V10.8198H155.957V14.8706H158.65V14.8668Z" fill="white"/>
<path d="M75.8226 13.1682V9.71777H90.4298V13.1682H85.1578V28.3758H81.0908V13.1682H75.8188H75.8226Z" fill="white"/>
<path d="M87.6961 18.6972C88.0237 17.8156 88.4906 17.0708 89.0932 16.4476C89.6994 15.8282 90.4225 15.3494 91.2697 15.0112C92.117 14.673 93.066 14.502 94.1204 14.502C95.1748 14.502 96.1275 14.673 96.9823 15.0112C97.8372 15.3532 98.5677 15.832 99.1702 16.4476C99.7765 17.067 100.24 17.8156 100.567 18.6972C100.895 19.575 101.061 20.5554 101.061 21.6384C101.061 22.7214 100.895 23.6942 100.567 24.5644C100.24 25.4346 99.7727 26.1794 99.1702 26.7988C98.5639 27.4182 97.8372 27.8932 96.9823 28.2238C96.1313 28.5544 95.1748 28.7216 94.1204 28.7216C93.066 28.7216 92.117 28.5544 91.2697 28.2238C90.4262 27.8932 89.6994 27.4182 89.0932 26.7988C88.4869 26.1832 88.0237 25.4346 87.6961 24.5644C87.3685 23.6942 87.2065 22.7176 87.2065 21.6384C87.2065 20.5592 87.3685 19.5788 87.6961 18.6972ZM91.0363 23.2192C91.1417 23.736 91.3187 24.1958 91.5672 24.6024C91.8158 25.0128 92.1509 25.3396 92.5652 25.5828C92.9794 25.826 93.4953 25.9476 94.1166 25.9476C94.738 25.9476 95.2614 25.826 95.6832 25.5828C96.1049 25.3396 96.4438 25.0128 96.6924 24.6024C96.9447 24.192 97.1217 23.7322 97.2233 23.2192C97.3288 22.7062 97.3815 22.1818 97.3815 21.6384C97.3815 21.095 97.3288 20.5668 97.2233 20.0424C97.1217 19.5218 96.9447 19.0582 96.6924 18.6554C96.4438 18.2564 96.1049 17.9296 95.6832 17.675C95.2614 17.4204 94.738 17.295 94.1166 17.295C93.4953 17.295 92.9756 17.4204 92.5652 17.675C92.1509 17.9258 91.8158 18.2526 91.5672 18.6554C91.3149 19.0582 91.1379 19.518 91.0363 20.0424C90.9346 20.5668 90.8819 21.095 90.8819 21.6384C90.8819 22.1818 90.9346 22.7062 91.0363 23.2192Z" fill="white"/>
<path d="M125.504 25.1382C126.057 25.6778 126.848 25.9476 127.887 25.9476C128.629 25.9476 129.269 25.7614 129.804 25.3852C130.339 25.0128 130.667 24.6138 130.787 24.1958H134.026C133.506 25.8146 132.711 26.9774 131.642 27.6728C130.572 28.3682 129.277 28.7178 127.759 28.7178C126.705 28.7178 125.756 28.5468 124.909 28.2086C124.062 27.8704 123.346 27.384 122.759 26.757C122.171 26.1262 121.719 25.3814 121.399 24.5112C121.079 23.641 120.921 22.6796 120.921 21.6346C120.921 20.5896 121.087 19.6814 121.414 18.8112C121.742 17.9372 122.209 17.1848 122.811 16.5502C123.418 15.9156 124.137 15.414 124.973 15.0492C125.809 14.6844 126.739 14.502 127.756 14.502C128.897 14.502 129.887 14.7224 130.734 15.167C131.578 15.6116 132.275 16.2082 132.817 16.9568C133.363 17.7054 133.754 18.5604 133.995 19.518C134.236 20.4756 134.323 21.475 134.255 22.5238H124.596C124.649 23.7246 124.95 24.5986 125.504 25.1382ZM129.661 18.0284C129.221 17.542 128.55 17.2988 127.654 17.2988C127.067 17.2988 126.581 17.3976 126.193 17.599C125.805 17.8004 125.492 18.0474 125.259 18.3438C125.026 18.6402 124.864 18.9556 124.766 19.2862C124.672 19.6206 124.615 19.9132 124.596 20.1754H130.58C130.411 19.233 130.098 18.5224 129.661 18.0322V18.0284Z" fill="white"/>
<path d="M139.569 14.8668V16.7478H139.648C140.115 15.965 140.717 15.3912 141.459 15.034C142.201 14.6806 142.962 14.502 143.741 14.502C144.724 14.502 145.53 14.635 146.163 14.9048C146.792 15.1746 147.289 15.5508 147.65 16.0296C148.012 16.5122 148.268 17.0936 148.415 17.7814C148.561 18.4692 148.637 19.2292 148.637 20.069V28.3796H144.958V20.7492C144.958 19.6358 144.784 18.8036 144.438 18.2564C144.092 17.7092 143.482 17.4356 142.6 17.4356C141.599 17.4356 140.872 17.7358 140.428 18.3362C139.979 18.9366 139.753 19.9246 139.753 21.304V28.3834H136.078V14.8668H139.573H139.569Z" fill="white"/>
<path d="M110.705 14.5058C110.675 14.5058 110.644 14.502 110.614 14.502C110.147 14.502 109.699 14.5704 109.266 14.711C108.837 14.8516 108.43 15.0492 108.05 15.2962C107.67 15.5508 107.334 15.8586 107.041 16.212C106.747 16.5692 106.513 16.9568 106.34 17.3748H106.288V14.8668H102.793V28.3758H106.468V22.2882C106.468 21.6764 106.529 21.114 106.649 20.5896C106.77 20.0652 106.973 19.6092 107.255 19.2178C107.542 18.8264 107.918 18.5186 108.385 18.2906C108.852 18.0626 109.421 17.9524 110.095 17.9524C110.291 17.9524 110.494 17.9638 110.701 17.9828V14.5058H110.705Z" fill="white"/>
<path d="M120.349 14.5058C120.319 14.5058 120.288 14.502 120.258 14.502C119.791 14.502 119.343 14.5704 118.91 14.711C118.477 14.8516 118.07 15.0492 117.694 15.2962C117.313 15.5508 116.978 15.8586 116.681 16.212C116.387 16.5692 116.154 16.9568 115.98 17.3748H115.928V14.8668H112.433V28.3758H116.112V22.2882C116.112 21.6764 116.172 21.114 116.297 20.5896C116.417 20.0652 116.621 19.6092 116.903 19.2178C117.189 18.8264 117.562 18.5186 118.029 18.2906C118.496 18.0626 119.065 17.9524 119.739 17.9524C119.934 17.9524 120.138 17.9638 120.345 17.9828V14.5058H120.349Z" fill="white"/>
<path d="M168.255 29H167.036L173.859 10.0909H175.188L182.012 29H180.793L174.57 11.5774H174.478L168.255 29ZM169.981 21.8814H179.066V22.9524H169.981V21.8814ZM186.268 19.804V29H185.142V14.8182H186.24V17.0618H186.351C186.684 16.3293 187.216 15.7415 187.948 15.2983C188.681 14.8551 189.552 14.6335 190.561 14.6335C191.515 14.6335 192.353 14.8366 193.073 15.2429C193.799 15.6491 194.365 16.2277 194.772 16.9787C195.184 17.7235 195.39 18.6129 195.39 19.647V29H194.264V19.6932C194.264 18.4867 193.904 17.5173 193.184 16.7848C192.469 16.0462 191.525 15.6768 190.349 15.6768C189.561 15.6768 188.859 15.8492 188.244 16.1939C187.628 16.5386 187.145 17.0218 186.794 17.6435C186.443 18.259 186.268 18.9792 186.268 19.804ZM204.937 29.2955C203.798 29.2955 202.804 28.9815 201.955 28.3537C201.105 27.7259 200.447 26.861 199.979 25.7592C199.517 24.6513 199.286 23.3802 199.286 21.946C199.286 20.5241 199.52 19.2623 199.988 18.1605C200.462 17.0526 201.124 16.1847 201.973 15.5568C202.823 14.9228 203.814 14.6058 204.946 14.6058C205.759 14.6058 206.464 14.7628 207.061 15.0767C207.664 15.3845 208.169 15.7938 208.575 16.3047C208.987 16.8156 209.301 17.3757 209.517 17.9851H209.627V10.0909H210.745V29H209.655V25.907H209.517C209.289 26.5163 208.972 27.0795 208.566 27.5966C208.159 28.1075 207.655 28.5199 207.051 28.8338C206.448 29.1416 205.743 29.2955 204.937 29.2955ZM205.039 28.2521C205.999 28.2521 206.821 27.9782 207.504 27.4304C208.193 26.8764 208.719 26.1255 209.083 25.1776C209.452 24.2235 209.637 23.1432 209.637 21.9368C209.637 20.7304 209.452 19.6562 209.083 18.7145C208.719 17.7666 208.193 17.0218 207.504 16.4801C206.821 15.9323 205.999 15.6584 205.039 15.6584C204.066 15.6584 203.232 15.9354 202.536 16.4893C201.847 17.0372 201.318 17.785 200.948 18.733C200.585 19.6809 200.404 20.7488 200.404 21.9368C200.404 23.1248 200.585 24.1958 200.948 25.1499C201.318 26.1039 201.847 26.861 202.536 27.4212C203.232 27.9751 204.066 28.2521 205.039 28.2521ZM215.813 29V14.8182H216.912V17.0341H217.014C217.322 16.3078 217.842 15.7261 218.574 15.2891C219.307 14.8459 220.141 14.6243 221.076 14.6243C221.175 14.6243 221.273 14.6243 221.372 14.6243C221.47 14.6243 221.563 14.6274 221.649 14.6335V15.7692C221.575 15.763 221.486 15.7538 221.381 15.7415C221.282 15.723 221.159 15.7138 221.012 15.7138C220.224 15.7138 219.522 15.883 218.907 16.2216C218.297 16.5601 217.817 17.0279 217.466 17.625C217.115 18.2159 216.94 18.893 216.94 19.6562V29H215.813ZM229.515 29.2955C228.346 29.2955 227.305 28.9815 226.394 28.3537C225.483 27.7197 224.766 26.8487 224.243 25.7408C223.72 24.6328 223.458 23.371 223.458 21.9553C223.458 20.5334 223.72 19.2715 224.243 18.1697C224.766 17.0618 225.483 16.1908 226.394 15.5568C227.305 14.9228 228.346 14.6058 229.515 14.6058C230.685 14.6058 231.725 14.9228 232.636 15.5568C233.547 16.1908 234.264 17.0618 234.787 18.1697C235.31 19.2777 235.572 20.5395 235.572 21.9553C235.572 23.371 235.31 24.6328 234.787 25.7408C234.264 26.8487 233.547 27.7197 232.636 28.3537C231.725 28.9815 230.685 29.2955 229.515 29.2955ZM229.515 28.2521C230.506 28.2521 231.371 27.9721 232.11 27.4119C232.854 26.8518 233.43 26.0947 233.836 25.1406C234.249 24.1866 234.455 23.1248 234.455 21.9553C234.455 20.7857 234.249 19.727 233.836 18.7791C233.424 17.825 232.848 17.0679 232.11 16.5078C231.371 15.9415 230.506 15.6584 229.515 15.6584C228.524 15.6584 227.659 15.9415 226.921 16.5078C226.182 17.0679 225.607 17.825 225.194 18.7791C224.782 19.727 224.576 20.7857 224.576 21.9553C224.576 23.1248 224.779 24.1866 225.185 25.1406C225.597 26.0947 226.173 26.8518 226.911 27.4119C227.656 27.9721 228.524 28.2521 229.515 28.2521ZM239.508 29V14.8182H240.625V29H239.508ZM240.071 12.3068C239.825 12.3068 239.609 12.2206 239.424 12.0483C239.246 11.8759 239.157 11.6667 239.157 11.4205C239.157 11.1742 239.246 10.965 239.424 10.7926C239.603 10.6203 239.818 10.5341 240.071 10.5341C240.317 10.5341 240.529 10.6203 240.708 10.7926C240.892 10.965 240.985 11.1742 240.985 11.4205C240.985 11.6667 240.896 11.8759 240.717 12.0483C240.539 12.2206 240.323 12.3068 240.071 12.3068ZM250.209 29.2955C249.07 29.2955 248.076 28.9815 247.226 28.3537C246.377 27.7259 245.718 26.861 245.25 25.7592C244.789 24.6513 244.558 23.3802 244.558 21.946C244.558 20.5241 244.792 19.2623 245.26 18.1605C245.734 17.0526 246.395 16.1847 247.245 15.5568C248.094 14.9228 249.085 14.6058 250.218 14.6058C251.03 14.6058 251.735 14.7628 252.332 15.0767C252.935 15.3845 253.44 15.7938 253.846 16.3047C254.259 16.8156 254.573 17.3757 254.788 17.9851H254.899V10.0909H256.016V29H254.927V25.907H254.788C254.56 26.5163 254.243 27.0795 253.837 27.5966C253.431 28.1075 252.926 28.5199 252.323 28.8338C251.72 29.1416 251.015 29.2955 250.209 29.2955ZM250.31 28.2521C251.27 28.2521 252.092 27.9782 252.775 27.4304C253.465 26.8764 253.991 26.1255 254.354 25.1776C254.723 24.2235 254.908 23.1432 254.908 21.9368C254.908 20.7304 254.723 19.6562 254.354 18.7145C253.991 17.7666 253.465 17.0218 252.775 16.4801C252.092 15.9323 251.27 15.6584 250.31 15.6584C249.338 15.6584 248.504 15.9354 247.808 16.4893C247.119 17.0372 246.589 17.785 246.22 18.733C245.857 19.6809 245.675 20.7488 245.675 21.9368C245.675 23.1248 245.857 24.1958 246.22 25.1499C246.589 26.1039 247.119 26.861 247.808 27.4212C248.504 27.9751 249.338 28.2521 250.31 28.2521Z" fill="white"/>
<path d="M19.0871 0C8.54721 0 0 8.5082 0 19C0 22.5644 0.984896 25.9008 2.70274 28.7508C2.70274 28.7508 2.70274 28.7546 2.70655 28.7546C2.74473 28.7964 2.84016 28.8344 2.88597 28.8154C2.93178 28.7964 2.96232 28.7052 2.96232 28.6406C2.96232 28.5722 2.92033 28.5038 2.90888 28.4354C2.67601 27.227 2.34008 26.0224 2.24083 24.8026C2.06904 22.7316 2.26373 20.6682 2.91651 18.6732C4.66871 13.3114 8.21892 9.652 13.5175 7.6874C15.2544 7.0452 17.0753 6.7868 18.9192 6.7488C19.7132 6.7298 20.2782 7.2542 20.282 7.9572C20.2896 8.6678 19.7399 9.1238 18.9306 9.1656C18.0755 9.2112 17.2128 9.2758 16.3729 9.4278C13.3381 9.9826 10.7422 11.3848 8.63502 13.6154C5.32149 17.1304 4.04647 21.3066 4.81759 26.0566C5.29095 28.975 6.62323 31.5096 8.70755 33.6262C11.4866 36.4458 14.888 37.8974 18.839 37.9924C18.923 37.9924 19.0031 37.9924 19.0871 37.9924C22.3128 37.9924 25.3515 37.1944 28.0161 35.7884C25.0881 35.7884 22.0456 35.8036 19.1177 35.7808C18.3694 35.7732 17.6136 35.7086 16.8768 35.5756C10.288 34.3976 5.88647 28.2112 6.94008 21.603C7.48597 18.1716 9.24962 15.4698 12.0936 13.4786C13.8992 12.2132 15.9187 11.5292 18.129 11.3544C19.2971 11.2632 20.4423 11.3354 21.5761 11.571C22.2785 11.7154 22.687 12.3348 22.5572 12.9618C22.4121 13.6572 21.7746 14.0448 21.034 13.9118C20.6141 13.8358 20.1865 13.7522 19.7628 13.7294C18.1671 13.6458 16.6211 13.889 15.1475 14.5274C11.1965 16.2412 8.76099 20.2768 9.24962 24.6354C9.55883 27.3904 10.8491 29.6438 13.0594 31.3424C14.8154 32.6914 16.8158 33.3792 19.049 33.3754C22.7557 33.3716 26.4624 33.3754 30.1691 33.3754C31.2494 33.3754 31.5052 33.402 31.9786 33.0068C32.5894 32.452 33.162 31.8554 33.6926 31.2246C28.8865 31.2246 23.6566 31.2246 18.8504 31.2246C17.6747 31.2246 16.5753 30.9358 15.5522 30.3924C11.8378 28.4278 10.3758 24.1756 12.0822 20.3452C13.884 16.2982 19.0986 14.6452 22.916 16.91C23.5535 17.29 23.7597 17.9588 23.4237 18.5592C23.0916 19.1596 22.3663 19.3458 21.7135 18.9924C20.6561 18.4186 19.5414 18.1792 18.3313 18.354C15.3766 18.7796 13.3724 21.5194 13.8496 24.4112C14.2619 26.904 16.2928 28.8268 19.0566 28.8534C24.401 28.9066 29.7454 28.8724 35.0936 28.8572C35.2348 28.8572 35.4448 28.7508 35.5402 28.633C37.2161 25.8058 38.1743 22.5112 38.1743 18.9962C38.1743 8.5082 29.627 0 19.0871 0Z" fill="white"/>
</svg>
