<svg width="51" height="51" viewBox="0 0 51 51" fill="none" xmlns="http://www.w3.org/2000/svg">
    <mask id="path-1-inside-1_774_1043" fill="white">
        <path d="M48.1102 22.3485C46.3393 21.7697 44.9621 20.436 44.3306 18.6904C43.7123 16.9833 43.8985 15.1102 44.8386 13.5528C45.8576 11.866 45.7008 9.79861 44.448 8.40822L44.2527 8.1937C42.9797 6.81242 40.9245 6.43902 39.2589 7.28499C37.5973 8.12792 35.6817 8.15929 33.9999 7.36999C32.3191 6.5817 31.1169 5.0881 30.702 3.27271C30.2841 1.45124 28.6832 0.112464 26.8071 0.0163316L26.5137 0.00317659C24.6325 -0.069682 22.9274 1.11731 22.3486 2.89121C21.7698 4.66208 20.4371 6.03931 18.6905 6.67176C16.9834 7.28802 15.1103 7.10385 13.5519 6.16377C11.8661 5.14578 9.7987 5.3006 8.41033 6.55337L8.1948 6.74968C6.81352 8.02268 6.44012 10.0769 7.28609 11.7435C8.12801 13.4041 8.16039 15.3207 7.37109 17.0025C6.5828 18.6833 5.0892 19.8855 3.2738 20.3004C1.45133 20.7173 0.111539 22.3181 0.0164181 24.1943L0.00326303 24.4877C-0.0706075 26.3608 1.11638 28.074 2.8913 28.6528C4.66217 29.2316 6.03939 30.5643 6.67084 32.3109C7.28912 34.018 7.10293 35.8911 6.16285 37.4484C5.14485 39.1353 5.30069 41.2027 6.55345 42.5931L6.74875 42.8076C8.02176 44.1889 10.076 44.5613 11.7426 43.7163C13.4022 42.8734 15.3187 42.842 17.0016 43.6313C18.6824 44.4196 19.8846 45.9132 20.2994 47.7286C20.7164 49.5511 22.3172 50.8898 24.1923 50.985L24.4858 50.9981C24.5404 50.9991 24.5951 51.0001 24.6497 51.0001C26.457 51.0001 28.0882 49.8314 28.6509 48.1091C29.2297 46.3382 30.5624 44.961 32.309 44.3285C34.0161 43.7102 35.8892 43.8964 37.4475 44.8375C39.1354 45.8555 41.2028 45.6997 42.5911 44.4469L42.8057 44.2516C44.1869 42.9786 44.5603 40.9244 43.7144 39.2578C42.8724 37.5972 42.8401 35.6806 43.6294 33.9988C44.4177 32.318 45.9113 31.1158 47.7267 30.7009C49.5491 30.285 50.8889 28.6842 50.984 26.807L50.9972 26.5136C51.0711 24.6415 49.8841 22.9283 48.1102 22.3495V22.3485ZM25.5007 13.2139C28.8674 13.2139 31.6077 15.9531 31.6077 19.3198C31.6077 22.6865 28.8684 25.4268 25.5007 25.4268C22.133 25.4268 19.3948 22.6875 19.3948 19.3198C19.3948 15.9521 22.1341 13.2139 25.5007 13.2139V13.2139ZM35.6837 36.7755V36.8018C35.6837 37.3462 35.2425 37.7874 34.6981 37.7874H16.3013C15.7569 37.7874 15.3157 37.3462 15.3157 36.8018V35.2738C15.3157 31.1249 18.6207 27.7421 22.7351 27.5994C22.8252 27.5953 22.9132 27.5862 23.0043 27.5862H27.9941C28.0842 27.5862 28.1732 27.5963 28.2633 27.5994C32.3778 27.7431 35.6837 31.1249 35.6837 35.2748V36.7755V36.7755Z"/>
    </mask>
    <path d="M48.1102 22.3485C46.3393 21.7697 44.9621 20.436 44.3306 18.6904C43.7123 16.9833 43.8985 15.1102 44.8386 13.5528C45.8576 11.866 45.7008 9.79861 44.448 8.40822L44.2527 8.1937C42.9797 6.81242 40.9245 6.43902 39.2589 7.28499C37.5973 8.12792 35.6817 8.15929 33.9999 7.36999C32.3191 6.5817 31.1169 5.0881 30.702 3.27271C30.2841 1.45124 28.6832 0.112464 26.8071 0.0163316L26.5137 0.00317659C24.6325 -0.069682 22.9274 1.11731 22.3486 2.89121C21.7698 4.66208 20.4371 6.03931 18.6905 6.67176C16.9834 7.28802 15.1103 7.10385 13.5519 6.16377C11.8661 5.14578 9.7987 5.3006 8.41033 6.55337L8.1948 6.74968C6.81352 8.02268 6.44012 10.0769 7.28609 11.7435C8.12801 13.4041 8.16039 15.3207 7.37109 17.0025C6.5828 18.6833 5.0892 19.8855 3.2738 20.3004C1.45133 20.7173 0.111539 22.3181 0.0164181 24.1943L0.00326303 24.4877C-0.0706075 26.3608 1.11638 28.074 2.8913 28.6528C4.66217 29.2316 6.03939 30.5643 6.67084 32.3109C7.28912 34.018 7.10293 35.8911 6.16285 37.4484C5.14485 39.1353 5.30069 41.2027 6.55345 42.5931L6.74875 42.8076C8.02176 44.1889 10.076 44.5613 11.7426 43.7163C13.4022 42.8734 15.3187 42.842 17.0016 43.6313C18.6824 44.4196 19.8846 45.9132 20.2994 47.7286C20.7164 49.5511 22.3172 50.8898 24.1923 50.985L24.4858 50.9981C24.5404 50.9991 24.5951 51.0001 24.6497 51.0001C26.457 51.0001 28.0882 49.8314 28.6509 48.1091C29.2297 46.3382 30.5624 44.961 32.309 44.3285C34.0161 43.7102 35.8892 43.8964 37.4475 44.8375C39.1354 45.8555 41.2028 45.6997 42.5911 44.4469L42.8057 44.2516C44.1869 42.9786 44.5603 40.9244 43.7144 39.2578C42.8724 37.5972 42.8401 35.6806 43.6294 33.9988C44.4177 32.318 45.9113 31.1158 47.7267 30.7009C49.5491 30.285 50.8889 28.6842 50.984 26.807L50.9972 26.5136C51.0711 24.6415 49.8841 22.9283 48.1102 22.3495V22.3485ZM25.5007 13.2139C28.8674 13.2139 31.6077 15.9531 31.6077 19.3198C31.6077 22.6865 28.8684 25.4268 25.5007 25.4268C22.133 25.4268 19.3948 22.6875 19.3948 19.3198C19.3948 15.9521 22.1341 13.2139 25.5007 13.2139V13.2139ZM35.6837 36.7755V36.8018C35.6837 37.3462 35.2425 37.7874 34.6981 37.7874H16.3013C15.7569 37.7874 15.3157 37.3462 15.3157 36.8018V35.2738C15.3157 31.1249 18.6207 27.7421 22.7351 27.5994C22.8252 27.5953 22.9132 27.5862 23.0043 27.5862H27.9941C28.0842 27.5862 28.1732 27.5963 28.2633 27.5994C32.3778 27.7431 35.6837 31.1249 35.6837 35.2748V36.7755V36.7755Z" fill="black"/>
    <path d="M48.1102 22.3485H49.1102V21.6233L48.4209 21.398L48.1102 22.3485ZM44.3306 18.6904L45.271 18.3502L45.2709 18.3499L44.3306 18.6904ZM44.8386 13.5528L43.9827 13.0358L43.9825 13.0361L44.8386 13.5528ZM44.448 8.40822L45.1909 7.73883L45.1875 7.73503L44.448 8.40822ZM44.2527 8.1937L44.9922 7.52049L44.9881 7.516L44.2527 8.1937ZM39.2589 7.28499L39.7113 8.17679L39.7117 8.17658L39.2589 7.28499ZM33.9999 7.36999L34.4247 6.46473L34.4245 6.46462L33.9999 7.36999ZM30.702 3.27271L31.6769 3.04991L31.6767 3.04907L30.702 3.27271ZM26.8071 0.0163316L26.8583 -0.982379L26.8519 -0.982665L26.8071 0.0163316ZM26.5137 0.00317659L26.5585 -0.995839L26.5524 -0.996074L26.5137 0.00317659ZM22.3486 2.89121L23.2991 3.20189L23.2993 3.20141L22.3486 2.89121ZM18.6905 6.67176L19.03 7.61235L19.031 7.61201L18.6905 6.67176ZM13.5519 6.16377L13.035 7.01981L13.0354 7.02004L13.5519 6.16377ZM8.41033 6.55337L7.74041 5.81093L7.73697 5.81405L8.41033 6.55337ZM8.19479 6.74968L7.52142 6.01035L7.5171 6.01434L8.19479 6.74968ZM7.28609 11.7435L8.178 11.2913L8.17779 11.2909L7.28609 11.7435ZM7.37109 17.0025L6.46583 16.5777L6.46571 16.5779L7.37109 17.0025ZM3.2738 20.3004L3.05101 19.3255L3.0508 19.3255L3.2738 20.3004ZM0.0164181 24.1943L-0.982316 24.1436L-0.982579 24.1495L0.0164181 24.1943ZM0.00326303 24.4877L-0.995748 24.4429L-0.99596 24.4483L0.00326303 24.4877ZM2.8913 28.6528L3.20198 27.7023L3.20134 27.7021L2.8913 28.6528ZM6.67084 32.3109L5.73041 32.6509L5.7306 32.6514L6.67084 32.3109ZM6.16285 37.4484L5.30673 36.9317L5.30667 36.9318L6.16285 37.4484ZM6.55345 42.5931L5.81053 43.2625L5.81399 43.2663L6.55345 42.5931ZM6.74875 42.8076L6.00927 43.4808L6.01341 43.4853L6.74875 42.8076ZM11.7426 43.7163L12.1948 44.6082L12.1955 44.6079L11.7426 43.7163ZM17.0016 43.6313L16.5769 44.5367L16.577 44.5367L17.0016 43.6313ZM20.2994 47.7286L19.3246 47.9514L19.3246 47.9516L20.2994 47.7286ZM24.1923 50.985L24.1417 51.9837L24.1475 51.984L24.1923 50.985ZM24.4858 50.9981L24.441 51.9971L24.4541 51.9977L24.4673 51.9979L24.4858 50.9981ZM28.6509 48.1091L27.7003 47.7984L27.7003 47.7985L28.6509 48.1091ZM32.309 44.3285L32.6494 45.2688L32.6495 45.2688L32.309 44.3285ZM37.4475 44.8375L36.9306 45.6935L36.9311 45.6938L37.4475 44.8375ZM42.5911 44.4469L43.2611 45.1894L43.2643 45.1864L42.5911 44.4469ZM42.8057 44.2516L43.4789 44.9911L43.4834 44.987L42.8057 44.2516ZM43.7144 39.2578L42.8225 39.71L42.8227 39.7104L43.7144 39.2578ZM43.6294 33.9988L44.5346 34.4236L44.5347 34.4234L43.6294 33.9988ZM47.7267 30.7009L47.5042 29.726L47.5039 29.7261L47.7267 30.7009ZM50.984 26.807L51.9828 26.8577L51.983 26.8518L50.984 26.807ZM50.9972 26.5136L51.9962 26.5584L51.9964 26.553L50.9972 26.5136ZM48.1102 22.3495H47.1102V23.0751L47.8 23.3002L48.1102 22.3495ZM22.7351 27.5994L22.7698 28.5988L22.78 28.5984L22.7351 27.5994ZM28.2633 27.5994L28.2982 26.6L28.297 26.5999L28.2633 27.5994ZM48.4209 21.398C46.9417 20.9145 45.7974 19.8053 45.271 18.3502L43.3903 19.0306C44.1268 21.0666 45.7369 22.6248 47.7995 23.299L48.4209 21.398ZM45.2709 18.3499C44.7558 16.9278 44.91 15.3697 45.6947 14.0696L43.9825 13.0361C42.8871 14.8507 42.6689 17.0387 43.3904 19.0309L45.2709 18.3499ZM45.6946 14.0699C46.9247 12.0335 46.7598 9.48 45.1909 7.73884L43.7051 9.07761C44.6418 10.1172 44.7905 11.6984 43.9827 13.0358L45.6946 14.0699ZM45.1875 7.73503L44.9922 7.5205L43.5132 8.86689L43.7085 9.08142L45.1875 7.73503ZM44.9881 7.516C43.4136 5.80764 40.8736 5.34327 38.806 6.39339L39.7117 8.17658C40.9754 7.53477 42.5458 7.8172 43.5174 8.87139L44.9881 7.516ZM38.8064 6.39318C37.4184 7.09733 35.8265 7.12259 34.4247 6.46473L33.575 8.27525C35.5369 9.19599 37.7761 9.15851 39.7113 8.17679L38.8064 6.39318ZM34.4245 6.46462C33.0234 5.80751 32.0235 4.56631 31.6769 3.04991L29.7272 3.4955C30.2104 5.60989 31.6148 7.35589 33.5753 8.27536L34.4245 6.46462ZM31.6767 3.04907C31.1581 0.788875 29.1778 -0.863505 26.8583 -0.982358L26.756 1.01502C28.1887 1.08843 29.4101 2.11361 29.7274 3.49634L31.6767 3.04907ZM26.8519 -0.982665L26.5585 -0.99582L26.4689 1.00217L26.7623 1.01533L26.8519 -0.982665ZM26.5524 -0.996074C24.227 -1.08614 22.1162 0.379664 21.3979 2.58101L23.2993 3.20141C23.7386 1.85495 25.038 0.946773 26.475 1.00243L26.5524 -0.996074ZM21.3981 2.58053C20.9146 4.05982 19.8062 5.2042 18.35 5.73151L19.031 7.61201C21.0679 6.87442 22.625 5.26434 23.2991 3.20189L21.3981 2.58053ZM18.3509 5.73117C16.9276 6.24499 15.369 6.09207 14.0685 5.30751L13.0354 7.02004C14.8516 8.11564 17.0391 8.33106 19.03 7.61235L18.3509 5.73117ZM14.0688 5.30774C12.0345 4.0793 9.48048 4.24081 7.74041 5.81093L9.08026 7.2958C10.1169 6.36039 11.6977 6.21226 13.035 7.01981L14.0688 5.30774ZM7.73697 5.81405L7.52143 6.01037L8.86816 7.48899L9.0837 7.29268L7.73697 5.81405ZM7.5171 6.01434C5.80869 7.58883 5.34447 10.1277 6.39438 12.1961L8.17779 11.2909C7.53576 10.0261 7.81835 8.45653 8.87249 7.48502L7.5171 6.01434ZM6.39417 12.1957C7.09758 13.5831 7.12356 15.1762 6.46583 16.5777L8.27635 17.4274C9.19722 15.4652 9.15843 13.2251 8.178 11.2913L6.39417 12.1957ZM6.46571 16.5779C5.80861 17.979 4.56741 18.9789 3.05101 19.3255L3.4966 21.2752C5.61099 20.792 7.35699 19.3876 8.27646 17.4271L6.46571 16.5779ZM3.0508 19.3255C0.789507 19.8428 -0.864653 21.8232 -0.982299 24.1436L1.01514 24.2449C1.08773 22.813 2.11315 21.5917 3.49681 21.2752L3.0508 19.3255ZM-0.982579 24.1495L-0.995734 24.4429L1.00226 24.5325L1.01541 24.239L-0.982579 24.1495ZM-0.99596 24.4483C-1.08734 26.7652 0.377969 28.885 2.58125 29.6035L3.20134 27.7021C1.85479 27.2629 0.946121 25.9563 1.00249 24.5271L-0.99596 24.4483ZM2.58061 29.6033C4.05996 30.0868 5.2041 31.1951 5.73041 32.6509L7.61126 31.9709C6.87469 29.9335 5.26437 28.3764 3.20198 27.7023L2.58061 29.6033ZM5.7306 32.6514C6.24565 34.0735 6.0915 35.6316 5.30673 36.9317L7.01897 37.9652C8.11436 36.1506 8.3326 33.9625 7.61107 31.9704L5.7306 32.6514ZM5.30667 36.9318C4.07809 38.9676 4.24144 41.521 5.81054 43.2625L7.29637 41.9237C6.35994 40.8844 6.21162 39.3031 7.01903 37.9651L5.30667 36.9318ZM5.81399 43.2663L6.00929 43.4808L7.48822 42.1344L7.29292 41.9199L5.81399 43.2663ZM6.01341 43.4853C7.58821 45.194 10.127 45.6566 12.1948 44.6082L11.2904 42.8244C10.0249 43.466 8.4553 43.1837 7.48409 42.1299L6.01341 43.4853ZM12.1955 44.6079C13.5809 43.9042 15.1738 43.8785 16.5769 44.5367L17.4262 42.7259C15.4637 41.8055 13.2234 41.8426 11.2897 42.8247L12.1955 44.6079ZM16.577 44.5367C17.9781 45.1938 18.978 46.435 19.3246 47.9514L21.2743 47.5058C20.7911 45.3914 19.3867 43.6454 17.4262 42.7259L16.577 44.5367ZM19.3246 47.9516C19.842 50.2131 21.8225 51.866 24.1417 51.9837L24.243 49.9862C22.8119 49.9137 21.5907 48.889 21.2743 47.5056L19.3246 47.9516ZM24.1475 51.984L24.441 51.9971L24.5306 49.9991L24.2371 49.986L24.1475 51.984ZM24.4673 51.9979C24.5204 51.9989 24.5843 52.0001 24.6497 52.0001V50.0001C24.6059 50.0001 24.5605 49.9993 24.5043 49.9983L24.4673 51.9979ZM24.6497 52.0001C26.8847 52.0001 28.9029 50.5578 29.6014 48.4196L27.7003 47.7985C27.2735 49.1049 26.0293 50.0001 24.6497 50.0001V52.0001ZM29.6014 48.4198C30.0849 46.9405 31.1932 45.7961 32.6494 45.2688L31.9685 43.3883C29.9315 44.1259 28.3745 45.736 27.7003 47.7984L29.6014 48.4198ZM32.6495 45.2688C34.0714 44.7537 35.6295 44.9078 36.9306 45.6935L37.9645 43.9815C36.1488 42.885 33.9607 42.6667 31.9684 43.3883L32.6495 45.2688ZM36.9311 45.6938C38.9674 46.922 41.5211 46.7593 43.2611 45.1894L41.9212 43.7045C40.8844 44.64 39.3034 44.789 37.964 43.9812L36.9311 45.6938ZM43.2643 45.1864L43.4789 44.9911L42.1325 43.5121L41.9179 43.7075L43.2643 45.1864ZM43.4834 44.987C45.1918 43.4125 45.656 40.8736 44.6061 38.8051L42.8227 39.7104C43.4647 40.9752 43.1821 42.5448 42.128 43.5163L43.4834 44.987ZM44.6063 38.8056C43.9029 37.4182 43.8769 35.8251 44.5346 34.4236L42.7241 33.5739C41.8032 35.5361 41.842 37.7762 42.8225 39.71L44.6063 38.8056ZM44.5347 34.4234C45.1918 33.0223 46.4331 32.0224 47.9495 31.6758L47.5039 29.7261C45.3895 30.2093 43.6435 31.6137 42.724 33.5742L44.5347 34.4234ZM47.9491 31.6759C50.2111 31.1597 51.8651 29.1788 51.9828 26.8577L49.9853 26.7564C49.9127 28.1895 48.8872 29.4104 47.5042 29.726L47.9491 31.6759ZM51.983 26.8518L51.9962 26.5584L49.9982 26.4688L49.985 26.7623L51.983 26.8518ZM51.9964 26.553C52.0878 24.237 50.6225 22.1174 48.4204 21.3988L47.8 23.3002C49.1457 23.7393 50.0543 25.046 49.998 26.4742L51.9964 26.553ZM49.1102 22.3495V22.3485H47.1102V22.3495H49.1102ZM25.5007 14.2139C28.3153 14.2139 30.6077 16.5056 30.6077 19.3198H32.6077C32.6077 15.4006 29.4195 12.2139 25.5007 12.2139V14.2139ZM30.6077 19.3198C30.6077 22.1343 28.316 24.4268 25.5007 24.4268V26.4268C29.4208 26.4268 32.6077 23.2387 32.6077 19.3198H30.6077ZM25.5007 24.4268C22.6855 24.4268 20.3948 22.1354 20.3948 19.3198H18.3948C18.3948 23.2396 21.5805 26.4268 25.5007 26.4268V24.4268ZM20.3948 19.3198C20.3948 16.5045 22.6862 14.2139 25.5007 14.2139V12.2139C21.5819 12.2139 18.3948 15.3997 18.3948 19.3198H20.3948ZM34.6837 36.7755V36.8018H36.6837V36.7755H34.6837ZM34.6837 36.8018C34.6837 36.8022 34.6837 36.8015 34.684 36.8C34.6843 36.7987 34.6847 36.7973 34.6853 36.796C34.6863 36.7935 34.6874 36.7923 34.688 36.7917C34.6886 36.7911 34.6898 36.79 34.6923 36.789C34.6936 36.7884 34.695 36.788 34.6963 36.7877C34.6978 36.7874 34.6985 36.7874 34.6981 36.7874V38.7874C35.7948 38.7874 36.6837 37.8985 36.6837 36.8018H34.6837ZM34.6981 36.7874H16.3013V38.7874H34.6981V36.7874ZM16.3013 36.7874C16.301 36.7874 16.3017 36.7874 16.3031 36.7877C16.3045 36.788 16.3059 36.7884 16.3072 36.789C16.3096 36.79 16.3109 36.7911 16.3115 36.7917C16.3121 36.7923 16.3131 36.7935 16.3142 36.796C16.3147 36.7973 16.3152 36.7987 16.3154 36.8C16.3157 36.8015 16.3157 36.8022 16.3157 36.8018H14.3157C14.3157 37.8985 15.2046 38.7874 16.3013 38.7874V36.7874ZM16.3157 36.8018V35.2738H14.3157V36.8018H16.3157ZM16.3157 35.2738C16.3157 31.6675 19.19 28.7229 22.7698 28.5988L22.7005 26.6C18.0513 26.7612 14.3157 30.5823 14.3157 35.2738H16.3157ZM22.78 28.5984C22.9551 28.5905 22.9343 28.5862 23.0043 28.5862V26.5862C22.8922 26.5862 22.6953 26.6002 22.6902 26.6004L22.78 28.5984ZM23.0043 28.5862H27.9941V26.5862H23.0043V28.5862ZM27.9941 28.5862C28.0045 28.5862 28.0218 28.5868 28.0639 28.5896C28.0969 28.5917 28.1643 28.5966 28.2296 28.5988L28.297 26.5999C28.2722 26.5991 28.25 26.5974 28.1935 26.5938C28.146 26.5907 28.0738 26.5862 27.9941 26.5862V28.5862ZM28.2284 28.5988C31.8087 28.7238 34.6837 31.6678 34.6837 35.2748H36.6837C36.6837 30.582 32.9468 26.7623 28.2982 26.6L28.2284 28.5988ZM34.6837 35.2748V36.7755H36.6837V35.2748H34.6837Z" fill="black" mask="url(#path-1-inside-1_774_1043)"/>
</svg>
