<svg width="213" height="39" viewBox="0 0 213 39" fill="none" xmlns="http://www.w3.org/2000/svg">
<path d="M166.799 8.63037H168.151L171.581 21.5846C171.973 23.0248 172.542 25.624 172.542 25.624H172.594C172.594 25.624 173.167 23.1844 173.528 21.7974L176.985 8.63417H178.412L181.896 21.7442C182.261 23.135 182.856 25.624 182.856 25.624H182.909C182.909 25.624 183.455 23.1084 183.842 21.5846L187.194 8.63037H188.493L183.556 27.3758H182.103L178.465 13.426C178.126 12.1682 177.738 10.253 177.738 10.253H177.686C177.686 10.253 177.298 12.1416 176.959 13.426L173.321 27.3758H171.815L166.799 8.63037Z" fill="white"/>
<path d="M189.43 20.7412C189.456 23.994 190.91 26.5894 194.212 26.5894C196.63 26.5894 197.745 25.172 198.291 23.3366H199.511C198.965 25.8522 197.199 27.7142 194.209 27.7142C190.258 27.7142 188.127 24.7768 188.127 20.6082C188.127 16.4396 190.439 13.5288 194.103 13.5288C195.557 13.5288 196.754 14 197.635 14.8398C199.115 16.2306 199.609 18.1686 199.586 20.7412H189.426H189.43ZM194.107 14.6308C191.196 14.6308 189.716 16.8348 189.456 19.6924H198.291C198.212 17.0172 197.071 14.6308 194.107 14.6308Z" fill="white"/>
<path d="M202.867 25.149H202.814V27.3796H201.541V8.63037H202.814V16.4166H202.867C203.774 14.7104 205.31 13.5324 207.57 13.5324C210.688 13.5324 213 16.1278 213 20.6384C213 24.6778 210.921 27.7178 207.464 27.7178C205.231 27.7178 203.88 26.7982 202.867 25.149ZM211.701 20.665C211.701 17.0474 210.142 14.6344 207.389 14.6344C204.399 14.6344 202.686 17.2298 202.686 20.665C202.686 24.1002 204.377 26.6424 207.416 26.6424C210.454 26.6424 211.705 23.8874 211.705 20.665H211.701Z" fill="white"/>
<path d="M53.3453 8.71777C54.2227 8.71777 55.0286 8.79757 55.7553 8.95717C56.4821 9.11297 57.1035 9.37137 57.6194 9.72857C58.1353 10.0858 58.5382 10.5608 58.8244 11.1536C59.1106 11.7464 59.2537 12.476 59.2537 13.35C59.2537 14.2886 59.0428 15.0714 58.6211 15.7022C58.1993 16.3292 57.5704 16.8422 56.742 17.245C57.8792 17.5756 58.7303 18.157 59.2913 18.9816C59.8524 19.81 60.1311 20.8056 60.1311 21.9722C60.1311 22.9146 59.9504 23.7278 59.5888 24.4194C59.2273 25.1072 58.7378 25.6696 58.1277 26.1028C57.5177 26.536 56.8135 26.859 56.0302 27.0718C55.2432 27.2808 54.4373 27.3834 53.6089 27.3834H44.6465V8.71777H53.3491H53.3453ZM52.8256 16.2722C53.5486 16.2722 54.1474 16.1012 54.6106 15.7516C55.0775 15.4058 55.311 14.8396 55.311 14.053C55.311 13.6198 55.2357 13.2588 55.0775 12.9814C54.9231 12.704 54.716 12.4874 54.4562 12.3278C54.1963 12.172 53.8988 12.0618 53.5637 12.001C53.2248 11.9402 52.8783 11.9098 52.5131 11.9098H48.7059V16.2722H52.8256ZM53.0591 24.1914C53.4583 24.1914 53.8386 24.1496 54.2001 24.0736C54.5616 23.9976 54.8817 23.8646 55.1566 23.6822C55.4353 23.4998 55.6537 23.249 55.8194 22.9374C55.9813 22.6258 56.0641 22.223 56.0641 21.7328C56.0641 20.7752 55.7968 20.0912 55.262 19.6808C54.7273 19.2742 54.0193 19.069 53.1382 19.069H48.7097V24.1914H53.0591Z" fill="white"/>
<path d="M62.3301 11.7768V8.71777H66.0054V11.7768H62.3301ZM66.0054 13.8668V27.3758H62.3301V13.8668H66.0054Z" fill="white"/>
<path d="M76.0034 13.8668V16.352H73.3109V23.0438C73.3109 23.667 73.4163 24.0888 73.6234 24.2978C73.8306 24.5068 74.2448 24.6094 74.8661 24.6094C75.0732 24.6094 75.2728 24.6018 75.4611 24.5828C75.6532 24.5638 76.6473 24.541 76.8205 24.5068V27.3796C76.508 27.4328 75.3481 27.467 74.9678 27.486C74.5875 27.505 74.2184 27.5126 73.8532 27.5126C73.2845 27.5126 72.746 27.4746 72.2339 27.3948C71.7255 27.3188 71.2736 27.163 70.8858 26.9388C70.4979 26.7108 70.1929 26.3878 69.9669 25.9698C69.741 25.5518 69.6318 25.0008 69.6318 24.3244V16.3558H67.4062V13.8706H69.6318V9.81982H73.3071V13.8706H75.9996L76.0034 13.8668Z" fill="white"/>
<path d="M158.65 13.8668V16.352H155.957V23.0438C155.957 23.667 156.063 24.0888 156.266 24.2978C156.473 24.5068 156.888 24.6094 157.509 24.6094C157.716 24.6094 157.916 24.6018 158.104 24.5828C158.296 24.5638 159.29 24.541 159.463 24.5068V27.3796C159.154 27.4328 157.991 27.467 157.614 27.486C157.234 27.505 156.861 27.5126 156.5 27.5126C155.931 27.5126 155.389 27.4746 154.88 27.3948C154.372 27.3188 153.92 27.163 153.532 26.9388C153.144 26.7108 152.836 26.3878 152.613 25.9698C152.387 25.5518 152.278 25.0008 152.278 24.3244V16.3558H150.053V13.8706H152.278V9.81982H155.957V13.8706H158.65V13.8668Z" fill="white"/>
<path d="M75.8231 12.1682V8.71777H90.4303V12.1682H85.1583V27.3758H81.0913V12.1682H75.8193H75.8231Z" fill="white"/>
<path d="M87.6966 17.6972C88.0242 16.8156 88.4911 16.0708 89.0937 15.4476C89.6999 14.8282 90.4229 14.3494 91.2702 14.0112C92.1175 13.673 93.0665 13.502 94.1209 13.502C95.1753 13.502 96.128 13.673 96.9828 14.0112C97.8376 14.3532 98.5682 14.832 99.1707 15.4476C99.777 16.067 100.24 16.8156 100.568 17.6972C100.895 18.575 101.061 19.5554 101.061 20.6384C101.061 21.7214 100.895 22.6942 100.568 23.5644C100.24 24.4346 99.7732 25.1794 99.1707 25.7988C98.5644 26.4182 97.8376 26.8932 96.9828 27.2238C96.1318 27.5544 95.1753 27.7216 94.1209 27.7216C93.0665 27.7216 92.1175 27.5544 91.2702 27.2238C90.4267 26.8932 89.6999 26.4182 89.0937 25.7988C88.4874 25.1832 88.0242 24.4346 87.6966 23.5644C87.369 22.6942 87.207 21.7176 87.207 20.6384C87.207 19.5592 87.369 18.5788 87.6966 17.6972ZM91.0368 22.2192C91.1422 22.736 91.3192 23.1958 91.5677 23.6024C91.8163 24.0128 92.1514 24.3396 92.5656 24.5828C92.9799 24.826 93.4958 24.9476 94.1171 24.9476C94.7385 24.9476 95.2619 24.826 95.6837 24.5828C96.1054 24.3396 96.4443 24.0128 96.6929 23.6024C96.9452 23.192 97.1222 22.7322 97.2238 22.2192C97.3293 21.7062 97.382 21.1818 97.382 20.6384C97.382 20.095 97.3293 19.5668 97.2238 19.0424C97.1222 18.5218 96.9452 18.0582 96.6929 17.6554C96.4443 17.2564 96.1054 16.9296 95.6837 16.675C95.2619 16.4204 94.7385 16.295 94.1171 16.295C93.4958 16.295 92.9761 16.4204 92.5656 16.675C92.1514 16.9258 91.8163 17.2526 91.5677 17.6554C91.3154 18.0582 91.1384 18.518 91.0368 19.0424C90.9351 19.5668 90.8824 20.095 90.8824 20.6384C90.8824 21.1818 90.9351 21.7062 91.0368 22.2192Z" fill="white"/>
<path d="M125.504 24.1382C126.057 24.6778 126.848 24.9476 127.887 24.9476C128.629 24.9476 129.269 24.7614 129.804 24.3852C130.339 24.0128 130.667 23.6138 130.787 23.1958H134.026C133.506 24.8146 132.711 25.9774 131.642 26.6728C130.572 27.3682 129.277 27.7178 127.759 27.7178C126.705 27.7178 125.756 27.5468 124.909 27.2086C124.062 26.8704 123.346 26.384 122.759 25.757C122.171 25.1262 121.719 24.3814 121.399 23.5112C121.079 22.641 120.921 21.6796 120.921 20.6346C120.921 19.5896 121.087 18.6814 121.414 17.8112C121.742 16.9372 122.209 16.1848 122.811 15.5502C123.418 14.9156 124.137 14.414 124.973 14.0492C125.809 13.6844 126.739 13.502 127.756 13.502C128.897 13.502 129.887 13.7224 130.734 14.167C131.578 14.6116 132.275 15.2082 132.817 15.9568C133.363 16.7054 133.754 17.5604 133.995 18.518C134.236 19.4756 134.323 20.475 134.255 21.5238H124.596C124.649 22.7246 124.95 23.5986 125.504 24.1382ZM129.661 17.0284C129.221 16.542 128.55 16.2988 127.654 16.2988C127.067 16.2988 126.581 16.3976 126.193 16.599C125.805 16.8004 125.492 17.0474 125.259 17.3438C125.026 17.6402 124.864 17.9556 124.766 18.2862C124.672 18.6206 124.615 18.9132 124.596 19.1754H130.58C130.411 18.233 130.098 17.5224 129.661 17.0322V17.0284Z" fill="white"/>
<path d="M139.569 13.8668V15.7478H139.648C140.115 14.965 140.717 14.3912 141.459 14.034C142.201 13.6806 142.962 13.502 143.741 13.502C144.724 13.502 145.53 13.635 146.163 13.9048C146.792 14.1746 147.289 14.5508 147.65 15.0296C148.012 15.5122 148.268 16.0936 148.415 16.7814C148.561 17.4692 148.637 18.2292 148.637 19.069V27.3796H144.958V19.7492C144.958 18.6358 144.784 17.8036 144.438 17.2564C144.092 16.7092 143.482 16.4356 142.6 16.4356C141.599 16.4356 140.872 16.7358 140.428 17.3362C139.979 17.9366 139.753 18.9246 139.753 20.304V27.3834H136.078V13.8668H139.573H139.569Z" fill="white"/>
<path d="M110.705 13.5058C110.675 13.5058 110.644 13.502 110.614 13.502C110.147 13.502 109.699 13.5704 109.266 13.711C108.837 13.8516 108.43 14.0492 108.05 14.2962C107.67 14.5508 107.334 14.8586 107.041 15.212C106.747 15.5692 106.513 15.9568 106.34 16.3748H106.288V13.8668H102.793V27.3758H106.468V21.2882C106.468 20.6764 106.529 20.114 106.649 19.5896C106.77 19.0652 106.973 18.6092 107.255 18.2178C107.542 17.8264 107.918 17.5186 108.385 17.2906C108.852 17.0626 109.421 16.9524 110.095 16.9524C110.291 16.9524 110.494 16.9638 110.701 16.9828V13.5058H110.705Z" fill="white"/>
<path d="M120.349 13.5058C120.319 13.5058 120.289 13.502 120.259 13.502C119.792 13.502 119.344 13.5704 118.911 13.711C118.478 13.8516 118.071 14.0492 117.694 14.2962C117.314 14.5508 116.979 14.8586 116.681 15.212C116.388 15.5692 116.154 15.9568 115.981 16.3748H115.928V13.8668H112.434V27.3758H116.113V21.2882C116.113 20.6764 116.173 20.114 116.297 19.5896C116.418 19.0652 116.621 18.6092 116.903 18.2178C117.19 17.8264 117.562 17.5186 118.029 17.2906C118.496 17.0626 119.065 16.9524 119.739 16.9524C119.935 16.9524 120.138 16.9638 120.345 16.9828V13.5058H120.349Z" fill="white"/>
<path d="M18.8286 0.171387C8.43144 0.171387 0 8.67959 0 19.1714C0 29.6632 8.43144 38.1714 18.8286 38.1714C29.2257 38.1714 37.6571 29.6632 37.6571 19.1714C37.6571 8.67959 29.2257 0.171387 18.8286 0.171387ZM33.8048 27.8886C33.7333 28.0102 33.5375 28.1242 33.3981 28.1242C28.5328 28.1356 23.6675 28.1698 18.7984 28.1204C16.2829 28.0938 14.434 26.323 14.0574 24.0202C13.6206 21.3526 15.447 18.8256 18.1357 18.4304C19.2353 18.2708 20.2482 18.4912 21.2123 19.0194C21.8035 19.3462 22.4625 19.1752 22.7675 18.6204C23.0725 18.0656 22.8842 17.4462 22.3043 17.0966C18.8323 15.0066 14.0838 16.5342 12.4419 20.2658C10.8904 23.7998 12.2197 27.7252 15.6014 29.5378C16.5353 30.0356 17.5369 30.3054 18.6064 30.3054C22.9822 30.3016 27.3579 30.3054 31.7337 30.3054H32.1215C31.8052 30.6626 31.5416 30.9704 31.263 31.263C30.6228 31.947 29.8383 32.2877 28.9094 32.2852C25.5353 32.2852 22.1612 32.2852 18.7834 32.2852C16.7499 32.2852 14.9311 31.6544 13.3306 30.408C11.3197 28.8424 10.1411 26.76 9.86241 24.2178C9.41805 20.1974 11.6361 16.4734 15.2323 14.8926C16.5729 14.3036 17.9775 14.0794 19.4311 14.1554C19.819 14.1744 20.2068 14.2504 20.5909 14.3226C21.265 14.448 21.8449 14.087 21.9767 13.4448C22.0972 12.8672 21.7206 12.2972 21.0842 12.1642C20.0487 11.9476 19.0093 11.8792 17.9436 11.9666C15.9327 12.1262 14.0913 12.757 12.4495 13.9274C9.86241 15.7666 8.25821 18.2594 7.75737 21.4248C6.79712 27.5238 10.8038 33.2314 16.8026 34.3182C17.4729 34.4398 18.162 34.5006 18.8399 34.5082C21.506 34.531 24.1721 34.5158 26.842 34.5158C25.2491 35.4202 23.5508 36.0282 21.7508 36.2904C20.7114 36.4424 19.6533 36.5716 18.6102 36.545C15.0026 36.4614 11.8997 35.12 9.36533 32.5132C7.46741 30.56 6.25485 28.223 5.82179 25.5288C5.12137 21.1474 6.28121 17.2904 9.29755 14.0452C11.2143 11.9856 13.5792 10.6898 16.3432 10.1806C17.1076 10.04 17.8909 9.97919 18.6704 9.93739C19.4047 9.89559 19.9056 9.47759 19.9018 8.82019C19.898 8.17419 19.3859 7.68779 18.6591 7.70679C16.9758 7.74479 15.3189 7.98039 13.7411 8.57319C8.91345 10.3858 5.68623 13.764 4.08957 18.7116C3.49458 20.5508 3.32136 22.4546 3.47575 24.366C3.56613 25.4908 3.87492 26.6004 4.0858 27.7176C4.0971 27.7822 4.13852 27.843 4.13475 27.9076C4.13475 27.9646 4.10463 28.0482 4.06321 28.0672C4.02178 28.0862 3.93517 28.052 3.89751 28.0102C3.8335 27.938 3.78454 27.8506 3.73935 27.7632C2.59458 25.7036 1.81884 23.5072 1.56277 21.155C1.02804 16.2796 2.2293 11.8792 5.272 8.04119C7.95319 4.68199 11.4365 2.61099 15.6352 1.78639C17.3599 1.44819 19.1035 1.40639 20.8583 1.61919C24.8236 2.10179 28.2316 3.76239 31.0634 6.58579C33.6655 9.18119 35.2847 12.3238 35.9362 15.9718C36.1772 17.317 36.2563 18.6774 36.1772 20.034C36.0115 22.8384 35.2283 25.4642 33.8086 27.8886H33.8048Z" fill="white"/>
</svg>
